<?xml version="1.0" encoding="utf-8"?>
<!-- Generator: Adobe Illustrator 18.0.0, SVG Export Plug-In . SVG Version: 6.00 Build 0)  -->
<!DOCTYPE svg PUBLIC "-//W3C//DTD SVG 1.0//EN" "http://www.w3.org/TR/2001/REC-SVG-20010904/DTD/svg10.dtd">
<svg version="1.0" id="Camada_1" xmlns="http://www.w3.org/2000/svg" xmlns:xlink="http://www.w3.org/1999/xlink" x="0px" y="0px"
	 width="25px" height="25px" viewBox="0 0 25 25" enable-background="new 0 0 25 25" xml:space="preserve">
<g>
	<polygon fill="#FFED00" points="0,0 25,0 25,25 0,25 0,0 0,0 	"/>
	<path fill-rule="evenodd" clip-rule="evenodd" fill="#0059A2" d="M18.9,4.8l2.2,1.5l2.2-1.4l0-2.9L18.9,4.8L18.9,4.8L18.9,4.8z
		 M6.1,20.3l-2.2-1.5l-2.2,1.5v2.9L6.1,20.3L6.1,20.3L6.1,20.3z M14.5,7.6L16.7,9L6.4,15.9l6.4,4.2l3-2l-2.3-1.5l5.4-3.5l4.5,2.9
		l-10.8,7.1L1.7,16.1L14.5,7.6L14.5,7.6L14.5,7.6z M10.4,17.3l-2.2-1.4L18.6,9l-6.4-4.2l-3,2l2.3,1.5l-5.4,3.5L1.7,8.9l10.8-7.1
		l10.7,7.1L10.4,17.3L10.4,17.3L10.4,17.3z"/>
</g>
</svg>
