<?xml version="1.0" encoding="utf-8"?>
<!-- Generator: Adobe Illustrator 18.0.0, SVG Export Plug-In . SVG Version: 6.00 Build 0)  -->
<!DOCTYPE svg PUBLIC "-//W3C//DTD SVG 1.0//EN" "http://www.w3.org/TR/2001/REC-SVG-20010904/DTD/svg10.dtd">
<svg version="1.0" id="Camada_1" xmlns="http://www.w3.org/2000/svg" xmlns:xlink="http://www.w3.org/1999/xlink" x="0px" y="0px"
	 width="25px" height="24px" viewBox="0 0 25 24" enable-background="new 0 0 25 24" xml:space="preserve">
<g>
	<g>
		<polygon fill-rule="evenodd" clip-rule="evenodd" fill="#231F20" points="2.5,0 4.2,0 4.2,15.2 2.5,15.2 2.5,0 		"/>
		<polygon fill-rule="evenodd" clip-rule="evenodd" fill="#231F20" points="4.7,0 5.3,0 5.3,15.2 4.7,15.2 4.7,0 		"/>
		<polygon fill-rule="evenodd" clip-rule="evenodd" fill="#231F20" points="5.7,0 6.6,0 6.6,15.2 5.7,15.2 5.7,0 		"/>
		<polygon fill-rule="evenodd" clip-rule="evenodd" fill="#231F20" points="7.5,0 8,0 8,15.2 7.5,15.2 7.5,0 		"/>
		<polygon fill-rule="evenodd" clip-rule="evenodd" fill="#231F20" points="8.3,0 8.7,0 8.7,15.2 8.3,15.2 8.3,0 		"/>
		<polygon fill-rule="evenodd" clip-rule="evenodd" fill="#231F20" points="1.3,0 1.8,0 1.8,15.2 1.3,15.2 1.3,0 		"/>
		<polygon fill-rule="evenodd" clip-rule="evenodd" fill="#231F20" points="0.1,0 1.1,0 1.1,15.2 0.1,15.2 0.1,0 		"/>
		<polygon fill-rule="evenodd" clip-rule="evenodd" fill="#231F20" points="11.4,0 13.1,0 13.1,15.2 11.4,15.2 11.4,0 		"/>
		<polygon fill-rule="evenodd" clip-rule="evenodd" fill="#231F20" points="13.6,0 14.1,0 14.1,15.2 13.6,15.2 13.6,0 		"/>
		<polygon fill-rule="evenodd" clip-rule="evenodd" fill="#231F20" points="14.6,0 15.5,0 15.5,15.2 14.6,15.2 14.6,0 		"/>
		<polygon fill-rule="evenodd" clip-rule="evenodd" fill="#231F20" points="16.4,0 16.9,0 16.9,15.2 16.4,15.2 16.4,0 		"/>
		<polygon fill-rule="evenodd" clip-rule="evenodd" fill="#231F20" points="17.1,0 17.5,0 17.5,15.2 17.1,15.2 17.1,0 		"/>
		<polygon fill-rule="evenodd" clip-rule="evenodd" fill="#231F20" points="10.2,0 10.7,0 10.7,15.2 10.2,15.2 10.2,0 		"/>
		<polygon fill-rule="evenodd" clip-rule="evenodd" fill="#231F20" points="9,0 9.9,0 9.9,15.2 9,15.2 9,0 		"/>
		<polygon fill-rule="evenodd" clip-rule="evenodd" fill="#231F20" points="18.2,0 19.1,0 19.1,15.2 18.2,15.2 18.2,0 		"/>
		<polygon fill-rule="evenodd" clip-rule="evenodd" fill="#231F20" points="20,0 20.5,0 20.5,15.2 20,15.2 20,0 		"/>
		<polygon fill-rule="evenodd" clip-rule="evenodd" fill="#231F20" points="20.8,0 21.2,0 21.2,15.2 20.8,15.2 20.8,0 		"/>
		<polygon fill-rule="evenodd" clip-rule="evenodd" fill="#231F20" points="22.7,0 23.2,0 23.2,15.2 22.7,15.2 22.7,0 		"/>
		<polygon fill-rule="evenodd" clip-rule="evenodd" fill="#231F20" points="21.5,0 22.4,0 22.4,15.2 21.5,15.2 21.5,0 		"/>
		<polygon fill-rule="evenodd" clip-rule="evenodd" fill="#231F20" points="23.9,0 24.4,0 24.4,15.2 23.9,15.2 23.9,0 		"/>
		<polygon fill-rule="evenodd" clip-rule="evenodd" fill="#231F20" points="24.6,0 25,0 25,15.2 24.6,15.2 24.6,0 		"/>
	</g>
	<g>
		<path d="M3.2,19v0.2c0,0.7-0.2,1.1-0.7,1.3v0c0.6,0.2,0.8,0.7,0.8,1.4v0.5c0,1-0.6,1.5-1.6,1.5H0v-6.4h1.6C2.7,17.6,3.2,18,3.2,19
			z M1.1,18.5v1.7h0.4c0.4,0,0.6-0.2,0.6-0.7v-0.4c0-0.5-0.2-0.7-0.5-0.7H1.1z M1.1,21.1v2h0.6c0.4,0,0.6-0.2,0.6-0.6v-0.6
			c0-0.6-0.2-0.8-0.7-0.8H1.1z"/>
		<path d="M4.6,19.1c0-1,0.6-1.6,1.6-1.6c1,0,1.6,0.6,1.6,1.6v3.3c0,1-0.6,1.6-1.6,1.6c-1,0-1.6-0.6-1.6-1.6V19.1z M5.6,22.5
			c0,0.5,0.2,0.6,0.6,0.6s0.6-0.2,0.6-0.6V19c0-0.5-0.2-0.6-0.6-0.6S5.6,18.6,5.6,19V22.5z"/>
		<path d="M9.2,17.6h1.1V23H12v0.9H9.2V17.6z"/>
		<path d="M14.3,20.2h1.5v0.9h-1.5V23h1.8v0.9h-2.9v-6.4h2.9v0.9h-1.8V20.2z"/>
		<path d="M17.2,17.6h3.3v0.9h-1.1v5.5h-1.1v-5.5h-1.1V17.6z"/>
		<path d="M21.6,19.1c0-1,0.6-1.6,1.6-1.6c1,0,1.6,0.6,1.6,1.6v3.3c0,1-0.6,1.6-1.6,1.6c-1,0-1.6-0.6-1.6-1.6V19.1z M22.7,22.5
			c0,0.5,0.2,0.6,0.6,0.6c0.3,0,0.6-0.2,0.6-0.6V19c0-0.5-0.2-0.6-0.6-0.6c-0.3,0-0.6,0.2-0.6,0.6V22.5z"/>
	</g>
</g>
</svg>
