<?xml version="1.0" encoding="utf-8"?>
<!-- Generator: Adobe Illustrator 20.0.0, SVG Export Plug-In . SVG Version: 6.00 Build 0)  -->
<svg version="1.1" id="Camada_1" xmlns="http://www.w3.org/2000/svg" xmlns:xlink="http://www.w3.org/1999/xlink" x="0px" y="0px"
	 viewBox="0 0 292 52" style="enable-background:new 0 0 292 52;" xml:space="preserve">
<style type="text/css">
	.st0{fill:#05AD96;}
	.st1{fill:#FFFFFF;}
</style>
<path class="st0" d="M284.8,51.1H7.2c-3.3,0-6-2.7-6-6V6.9c0-3.3,2.7-6,6-6h277.5c3.3,0,6,2.7,6,6v38.2
	C290.8,48.4,288,51.1,284.8,51.1z"/>
<g>
	<path class="st1" d="M16.4,34.8v-16h11v2.7h-7.8v3.8h6.7V28h-6.7v6.8H16.4z"/>
	<path class="st1" d="M29.5,34.8v-16h3.2v16H29.5z"/>
	<path class="st1" d="M35.4,34.8v-16h3.2l6.6,10.7V18.8h3v16h-3.2l-6.5-10.5v10.5H35.4z"/>
	<path class="st1" d="M65.6,34.8h-3.5l-1.4-3.6h-6.4l-1.3,3.6h-3.4l6.2-16h3.4L65.6,34.8z M59.6,28.5l-2.2-6l-2.2,6H59.6z"/>
	<path class="st1" d="M66.9,34.8V18.9h3.2v13.2h8.1v2.7H66.9z"/>
	<path class="st1" d="M80,34.8v-16h3.2v16H80z"/>
	<path class="st1" d="M84.5,34.8v-2.9l8.4-10.4h-7.5v-2.7h11.7v2.5l-8.8,10.8h9.1v2.7H84.5z"/>
	<path class="st1" d="M113.6,34.8h-3.5l-1.4-3.6h-6.4l-1.3,3.6h-3.4l6.2-16h3.4L113.6,34.8z M107.6,28.5l-2.2-6l-2.2,6H107.6z"/>
	<path class="st1" d="M114.9,34.8v-16h6.8c1.7,0,3,0.1,3.7,0.4s1.4,0.8,1.9,1.5s0.7,1.6,0.7,2.5c0,1.2-0.4,2.2-1.1,3
		s-1.8,1.3-3.2,1.5c0.7,0.4,1.3,0.9,1.7,1.3c0.5,0.5,1.1,1.4,1.8,2.6l2,3.1h-3.9l-2.3-3.5c-0.8-1.2-1.4-2-1.7-2.4
		c-0.3-0.3-0.6-0.5-1-0.7s-0.9-0.2-1.6-0.2h-0.7v6.7H114.9z M118.1,25.6h2.4c1.6,0,2.5-0.1,2.9-0.2s0.7-0.4,0.9-0.7s0.3-0.7,0.3-1.2
		c0-0.5-0.1-1-0.4-1.3c-0.3-0.3-0.7-0.5-1.2-0.6c-0.3,0-1.1-0.1-2.4-0.1h-2.5V25.6z"/>
	<path class="st1" d="M146.6,28.9l3.1,1c-0.5,1.8-1.3,3.1-2.4,3.9s-2.5,1.3-4.3,1.3c-2.1,0-3.9-0.7-5.3-2.2c-1.4-1.5-2.1-3.4-2.1-6
		c0-2.7,0.7-4.7,2.1-6.2c1.4-1.5,3.2-2.2,5.4-2.2c2,0,3.6,0.6,4.8,1.7c0.7,0.7,1.3,1.7,1.6,3l-3.2,0.8c-0.2-0.8-0.6-1.5-1.2-2
		c-0.6-0.5-1.3-0.7-2.2-0.7c-1.2,0-2.2,0.4-2.9,1.3c-0.7,0.9-1.1,2.2-1.1,4.1c0,2,0.4,3.5,1.1,4.3c0.7,0.9,1.7,1.3,2.8,1.3
		c0.9,0,1.6-0.3,2.2-0.8C145.9,31,146.3,30.1,146.6,28.9z"/>
	<path class="st1" d="M151.4,26.9c0-1.6,0.2-3,0.7-4.1c0.4-0.8,0.9-1.5,1.5-2.2c0.6-0.6,1.3-1.1,2.1-1.4c1-0.4,2.2-0.6,3.5-0.6
		c2.4,0,4.3,0.7,5.7,2.2c1.4,1.5,2.1,3.5,2.1,6.1c0,2.6-0.7,4.6-2.1,6.1c-1.4,1.5-3.3,2.2-5.6,2.2c-2.4,0-4.3-0.7-5.7-2.2
		S151.4,29.5,151.4,26.9z M154.8,26.8c0,1.8,0.4,3.2,1.3,4.1c0.8,0.9,1.9,1.4,3.2,1.4s2.3-0.5,3.2-1.4c0.8-0.9,1.2-2.3,1.2-4.2
		c0-1.8-0.4-3.2-1.2-4.1c-0.8-0.9-1.9-1.4-3.2-1.4s-2.4,0.5-3.2,1.4C155.2,23.6,154.8,25,154.8,26.8z"/>
	<path class="st1" d="M169,34.8v-16h4.8l2.9,10.9l2.9-10.9h4.9v16h-3V22.2l-3.2,12.6h-3.1L172,22.2v12.6H169z"/>
	<path class="st1" d="M187.3,34.8v-16h5.2c2,0,3.3,0.1,3.9,0.2c0.9,0.2,1.7,0.8,2.3,1.6c0.6,0.8,0.9,1.8,0.9,3.1
		c0,1-0.2,1.8-0.5,2.5s-0.8,1.2-1.4,1.6s-1.1,0.6-1.7,0.8c-0.8,0.2-1.9,0.2-3.4,0.2h-2.1v6H187.3z M190.5,21.5v4.6h1.8
		c1.3,0,2.1-0.1,2.6-0.3c0.4-0.2,0.8-0.4,1-0.8c0.2-0.4,0.4-0.8,0.4-1.2c0-0.6-0.2-1.1-0.5-1.4s-0.8-0.6-1.3-0.7
		c-0.4-0.1-1.2-0.1-2.3-0.1H190.5z"/>
	<path class="st1" d="M201.8,34.8v-16h6.8c1.7,0,3,0.1,3.7,0.4c0.8,0.3,1.4,0.8,1.9,1.5s0.7,1.6,0.7,2.5c0,1.2-0.4,2.2-1.1,3
		c-0.7,0.8-1.8,1.3-3.2,1.5c0.7,0.4,1.3,0.9,1.7,1.3c0.5,0.5,1.1,1.4,1.8,2.6l2,3.1h-3.9l-2.3-3.5c-0.8-1.2-1.4-2-1.7-2.4
		c-0.3-0.3-0.6-0.5-1-0.7s-0.9-0.2-1.6-0.2H205v6.7H201.8z M205,25.6h2.4c1.6,0,2.5-0.1,2.9-0.2c0.4-0.1,0.7-0.4,0.9-0.7
		c0.2-0.3,0.3-0.7,0.3-1.2c0-0.5-0.1-1-0.4-1.3c-0.3-0.3-0.7-0.5-1.2-0.6c-0.3,0-1-0.1-2.4-0.1H205V25.6z"/>
	<path class="st1" d="M232,34.8h-3.5l-1.4-3.6h-6.4l-1.3,3.6h-3.4l6.2-16h3.4L232,34.8z M226,28.5l-2.2-6l-2.2,6H226z"/>
</g>
<path class="st1" d="M277.2,19.2h-19.9l-0.6-3.7c0,0-0.1-0.4-0.7-0.8c0,0,0,0-0.1,0c-0.3-0.2-0.6-0.3-1-0.3c-0.9,0-1.6,0.7-1.6,1.6
	s0.7,1.6,1.6,1.6c0.2,0,0.3,0,0.5-0.1l0,0.2l2.4,14.9h1.7c-0.3,0.3-0.5,0.7-0.5,1.1c0,0.8,0.7,1.5,1.5,1.5c0.8,0,1.5-0.7,1.5-1.5
	c0-0.4-0.2-0.8-0.5-1.1h8c-0.3,0.3-0.5,0.7-0.5,1.1c0,0.8,0.7,1.5,1.5,1.5s1.5-0.7,1.5-1.5c0-0.4-0.2-0.8-0.5-1.1h1.7l0.3-1.4h-14.3
	L259,29h16.1L277.2,19.2z M274.9,23.4h-2v-3h2.7L274.9,23.4z M266.4,23.4h-2.3v-3h2.3V23.4z M267,20.5h2.3v3H267V20.5z M263.4,23.4
	h-2.3v-3h2.3V23.4z M263.4,24.5v3.1h-2.3v-3.1H263.4z M264.1,24.5h2.3v3.1h-2.3V24.5z M267,24.5h2.3v3.1H267V24.5z M269.9,24.5h2.3
	v3.1h-2.3V24.5z M269.9,23.4v-3h2.3v3H269.9z M257.6,20.5h3v3h-2.4l-0.5-2.8L257.6,20.5z M258.3,24.5h2.3v3.1h-1.7L258.3,24.5z
	 M272.8,27.6v-3.1h1.8l-0.7,3.1H272.8z"/>
</svg>
