<?xml version="1.0" encoding="utf-8"?>
<svg version="1.1"
	 xmlns="http://www.w3.org/2000/svg" xmlns:xlink="http://www.w3.org/1999/xlink" xmlns:a="http://ns.adobe.com/AdobeSVGViewerExtensions/3.0/"
	 x="0px" y="0px" width="225px" height="52px" viewBox="0 0 225 52" enable-background="new 0 0 225 52" xml:space="preserve">
<path fill="#05AD96" d="M218.938,52H6.032C2.714,52,0,49.215,0,45.81V6.19C0,2.786,2.714,0,6.032,0h212.906
	c3.317,0,6.033,2.786,6.033,6.19v39.722C224.971,49.215,222.255,52,218.938,52z"/>
<path fill="#FFFFFF" d="M211.3,17.643h-27.945l-0.905-5.366c0,0-0.101-0.619-1.006-1.135h-0.1c-0.403-0.309-0.805-0.515-1.407-0.515
	c-1.208,0-2.313,1.032-2.313,2.373c0,1.341,1.005,2.373,2.313,2.373c0.201,0,0.502,0,0.702-0.103v0.207l3.418,21.46h2.412
	c-0.401,0.413-0.602,0.928-0.602,1.547c0,1.238,0.904,2.167,2.111,2.167c1.206,0,2.11-0.929,2.11-2.167
	c0-0.619-0.301-1.134-0.604-1.547h11.259c-0.401,0.413-0.603,0.928-0.603,1.547c0,1.238,0.905,2.167,2.111,2.167
	s2.109-0.929,2.109-2.167c0-0.619-0.301-1.134-0.603-1.547h2.313l0.501-2.063h-20.104l-0.502-3.198h22.618L211.3,17.643z
	 M208.083,23.626h-2.916v-4.333h3.719L208.083,23.626z M196.12,23.626h-3.217v-4.333h3.217V23.626z M196.925,19.396h3.217v4.334
	h-3.217V19.396z M191.998,23.626h-3.215v-4.333h3.215V23.626z M191.998,25.278v4.437h-3.215v-4.437H191.998z M192.803,25.278h3.217
	v4.437h-3.217V25.278z M196.925,25.278h3.217v4.437h-3.217V25.278z M201.047,25.278h3.215v4.437h-3.215V25.278z M201.047,23.626
	v-4.333h3.215v4.333H201.047z M183.756,19.396h4.122v4.334h-3.418l-0.704-4.024V19.396z M184.661,25.278h3.217v4.437h-2.414
	L184.661,25.278z M205.167,29.715v-4.437h2.513l-0.903,4.437H205.167z"/>
<path fill="#FFFFFF" d="M41.717,29.715l3.418,1.134c-0.503,1.961-1.407,3.509-2.613,4.438c-1.207,0.928-2.815,1.443-4.725,1.443
	c-2.312,0-4.323-0.825-5.83-2.476c-1.508-1.65-2.312-3.921-2.312-6.81c0-2.992,0.804-5.365,2.312-7.016
	c1.507-1.651,3.519-2.476,6.031-2.476c2.212,0,3.92,0.618,5.328,1.96c0.804,0.826,1.407,1.857,1.809,3.301l-3.519,0.826
	c-0.201-0.929-0.603-1.651-1.306-2.27c-0.704-0.619-1.508-0.825-2.413-0.825c-1.307,0-2.412,0.516-3.216,1.444
	c-0.805,0.929-1.207,2.58-1.207,4.748c0,2.269,0.402,3.92,1.207,4.951c0.804,0.929,1.809,1.445,3.116,1.445
	c0.905,0,1.81-0.311,2.413-0.929C40.913,31.983,41.416,31.056,41.717,29.715z"/>
<path fill="#FFFFFF" d="M47.447,27.444c0-1.857,0.301-3.405,0.804-4.643c0.402-0.929,0.905-1.754,1.608-2.476
	c0.704-0.723,1.508-1.239,2.312-1.651c1.105-0.516,2.413-0.722,3.82-0.722c2.613,0,4.725,0.825,6.232,2.476
	c1.608,1.651,2.312,4.024,2.312,6.913s-0.804,5.263-2.312,6.913s-3.619,2.476-6.232,2.476s-4.725-0.825-6.233-2.476
	C48.251,32.604,47.447,30.333,47.447,27.444z M51.166,27.341c0,2.063,0.502,3.611,1.408,4.643c0.904,1.032,2.111,1.549,3.518,1.549
	s2.614-0.517,3.519-1.549c0.904-1.031,1.407-2.682,1.407-4.745c0-2.064-0.402-3.612-1.306-4.643
	c-0.905-1.032-2.111-1.548-3.519-1.548c-1.408,0-2.613,0.516-3.519,1.548C51.77,23.626,51.166,25.174,51.166,27.341z"/>
<path fill="#FFFFFF" d="M67.451,36.421V18.262h5.328l3.216,12.38l3.217-12.38h5.328v18.159h-3.317V22.08l-3.519,14.341h-3.418
	L70.768,22.08v14.341H67.451z"/>
<path fill="#FFFFFF" d="M88.058,36.421V18.262h5.73c2.211,0,3.619,0.103,4.222,0.309c1.005,0.31,1.91,0.826,2.513,1.755
	c0.704,0.928,1.005,2.063,1.005,3.507c0,1.135-0.201,2.063-0.603,2.786c-0.402,0.722-0.905,1.341-1.508,1.754
	c-0.603,0.412-1.206,0.722-1.81,0.825c-0.804,0.206-2.111,0.31-3.719,0.31h-2.312v6.81h-3.518V36.421z M91.677,21.253v5.159h1.91
	c1.407,0,2.312-0.103,2.814-0.31s0.804-0.516,1.106-0.929c0.302-0.412,0.402-0.825,0.402-1.444c0-0.62-0.202-1.238-0.604-1.651
	c-0.402-0.414-0.904-0.723-1.407-0.826c-0.402-0.103-1.307-0.103-2.614-0.103h-1.608V21.253z"/>
<path fill="#FFFFFF" d="M104.543,36.421V18.262h7.54c1.91,0,3.317,0.207,4.121,0.515c0.905,0.31,1.508,0.929,2.011,1.754
	c0.503,0.825,0.804,1.754,0.804,2.889c0,1.342-0.401,2.476-1.206,3.405c-0.804,0.928-1.909,1.443-3.519,1.651
	c0.805,0.413,1.407,0.928,1.91,1.547c0.503,0.516,1.207,1.547,2.011,2.992l2.212,3.509h-4.322l-2.615-3.921
	c-0.904-1.444-1.507-2.271-1.909-2.683c-0.402-0.413-0.703-0.619-1.105-0.723s-1.005-0.207-1.81-0.207h-0.704v7.635h-3.418V36.421z
	 M108.163,25.896h2.614c1.709,0,2.813-0.103,3.217-0.207c0.401-0.103,0.804-0.412,1.006-0.722c0.2-0.31,0.401-0.826,0.401-1.342
	c0-0.618-0.201-1.134-0.503-1.444c-0.301-0.413-0.804-0.619-1.308-0.722c-0.301,0-1.206-0.104-2.613-0.104h-2.814V25.896z"/>
<path fill="#FFFFFF" d="M138.42,36.421h-3.921l-1.507-4.127h-7.038l-1.507,4.127h-3.82l6.937-18.159h3.819L138.42,36.421z
	 M131.785,29.198l-2.412-6.706l-2.413,6.706H131.785z"/>
<path fill="#FFFFFF" d="M140.329,36.421V18.262h7.54c1.91,0,3.317,0.207,4.122,0.515c0.903,0.31,1.507,0.929,2.009,1.754
	c0.504,0.825,0.805,1.754,0.805,2.889c0,1.342-0.401,2.476-1.206,3.405c-0.805,0.928-1.91,1.443-3.518,1.651
	c0.805,0.413,1.406,0.928,1.91,1.547c0.502,0.516,1.206,1.547,2.009,2.992l2.212,3.509h-4.323l-2.612-3.921
	c-0.905-1.444-1.508-2.271-1.91-2.683c-0.302-0.413-0.703-0.619-1.105-0.723s-1.005-0.207-1.81-0.207h-0.704v7.635h-3.418V36.421z
	 M143.849,25.896h2.613c1.708,0,2.814-0.103,3.218-0.207c0.401-0.103,0.803-0.412,1.005-0.722c0.201-0.31,0.401-0.826,0.401-1.342
	c0-0.618-0.2-1.134-0.504-1.444c-0.301-0.413-0.803-0.619-1.306-0.722c-0.302,0-1.207-0.104-2.613-0.104h-2.814V25.896
	L143.849,25.896z"/>
</svg>
