<?xml version="1.0" encoding="utf-8"?>
<svg version="1.1"
	 xmlns="http://www.w3.org/2000/svg" xmlns:xlink="http://www.w3.org/1999/xlink" xmlns:a="http://ns.adobe.com/AdobeSVGViewerExtensions/3.0/"
	 x="0px" y="0px" width="225px" height="52px" viewBox="0 0 225 52" enable-background="new 0 0 225 52" xml:space="preserve">

<path fill="#8E8E8E" d="M219.265,52.175H6.04C2.718,52.175,0,49.38,0,45.964V6.211C0,2.795,2.718,0,6.04,0h213.225
	c3.322,0,6.04,2.795,6.04,6.211v39.856C225.305,49.38,222.587,52.175,219.265,52.175z"/>
<path fill="#FFFFFF" d="M36.242,29.607l3.523,1.14c-0.503,1.966-1.41,3.52-2.718,4.452c-1.208,0.932-2.819,1.447-4.732,1.447
	c-2.417,0-4.329-0.826-5.839-2.483c-1.511-1.657-2.316-3.934-2.316-6.831c0-3.003,0.805-5.384,2.316-7.144
	c1.51-1.656,3.523-2.485,6.04-2.485c2.215,0,3.926,0.621,5.336,1.968c0.805,0.828,1.409,1.862,1.812,3.416l-3.523,0.931
	c-0.202-0.931-0.604-1.656-1.309-2.277c-0.705-0.518-1.51-0.829-2.416-0.829c-1.309,0-2.417,0.518-3.222,1.45
	c-0.805,0.933-1.208,2.588-1.208,4.763c0,2.275,0.403,3.933,1.208,4.969c0.806,1.033,1.913,1.448,3.121,1.448
	c1.007,0,1.812-0.312,2.517-0.933C35.437,31.99,35.94,30.954,36.242,29.607z"/>
<path fill="#FFFFFF" d="M41.175,27.332c0-1.865,0.302-3.417,0.806-4.659c0.402-0.932,1.006-1.761,1.61-2.485
	c0.705-0.724,1.51-1.242,2.315-1.656c1.107-0.518,2.416-0.725,3.825-0.725c2.618,0,4.732,0.829,6.343,2.485s2.315,4.038,2.315,7.041
	c0,3.001-0.805,5.277-2.315,6.935c-1.611,1.657-3.624,2.483-6.242,2.483s-4.732-0.826-6.342-2.483
	C41.88,32.505,41.175,30.229,41.175,27.332z M44.799,27.228c0,2.068,0.503,3.622,1.409,4.762c0.906,1.033,2.114,1.655,3.523,1.655
	c1.41,0,2.618-0.519,3.524-1.552c0.906-1.036,1.409-2.693,1.409-4.762c0-2.072-0.402-3.625-1.308-4.659
	c-0.906-1.036-2.114-1.554-3.524-1.554c-1.51,0-2.718,0.518-3.625,1.554C45.303,23.501,44.799,25.156,44.799,27.228z"/>
<path fill="#FFFFFF" d="M60.303,36.439V18.013h3.524l7.249,12.216V18.013h3.322v18.426h-3.624l-7.147-11.903v11.903H60.303z"/>
<path fill="#FFFFFF" d="M76.31,30.436l3.524-0.312c0.201,1.243,0.604,2.072,1.309,2.691c0.604,0.518,1.51,0.829,2.617,0.829
	c1.208,0,2.014-0.208,2.618-0.726c0.604-0.516,0.906-1.137,0.906-1.759c0-0.414-0.101-0.828-0.403-1.14
	c-0.201-0.311-0.705-0.518-1.308-0.828c-0.403-0.104-1.41-0.414-2.92-0.827c-1.913-0.518-3.322-1.138-4.027-1.863
	c-1.107-1.036-1.611-2.278-1.611-3.727c0-0.932,0.302-1.761,0.806-2.588c0.503-0.828,1.208-1.449,2.214-1.864
	c1.007-0.414,2.114-0.621,3.524-0.621c2.214,0,3.926,0.518,5.033,1.554c1.107,1.035,1.712,2.38,1.812,4.038l-3.624,0.207
	c-0.201-0.932-0.503-1.657-1.007-2.072c-0.503-0.414-1.309-0.622-2.315-0.622c-1.007,0-1.913,0.208-2.417,0.622
	c-0.402,0.311-0.604,0.622-0.604,1.14c0,0.414,0.202,0.829,0.503,1.138c0.504,0.415,1.511,0.829,3.323,1.242
	c1.711,0.414,3.02,0.829,3.926,1.346c0.906,0.518,1.51,1.036,2.014,1.863c0.503,0.827,0.705,1.759,0.705,2.898
	c0,1.036-0.302,2.069-0.806,3.002c-0.604,0.932-1.41,1.554-2.416,2.071c-1.007,0.412-2.315,0.619-3.927,0.619
	c-2.214,0-4.026-0.516-5.234-1.654C77.316,34.059,76.511,32.505,76.31,30.436z"/>
<path fill="#FFFFFF" d="M92.82,18.013h3.624v9.938c0,1.552,0,2.588,0.101,3.105c0.201,0.726,0.503,1.347,1.107,1.759
	c0.604,0.414,1.409,0.726,2.416,0.726c1.007,0,1.813-0.208,2.316-0.622c0.503-0.414,0.805-0.93,0.906-1.552
	c0.101-0.621,0.201-1.657,0.201-3.105V18.117h3.624v9.628c0,2.173-0.101,3.727-0.302,4.659c-0.202,0.93-0.503,1.655-1.108,2.276
	c-0.503,0.622-1.208,1.14-2.114,1.45c-0.906,0.412-2.013,0.516-3.423,0.516c-1.711,0-3.021-0.207-3.826-0.619
	c-0.906-0.414-1.611-0.932-2.114-1.554c-0.503-0.621-0.805-1.347-1.007-2.069c-0.201-1.036-0.302-2.59-0.302-4.659v-9.731H92.82z"/>
<path fill="#FFFFFF" d="M109.935,36.439V18.22h3.625v15.113h8.96v3.105H109.935z"/>
<path fill="#FFFFFF" d="M126.244,36.439v-15.32h-5.336v-3.105h14.194v3.105h-5.234v15.32H126.244z"/>
<path fill="#FFFFFF" d="M136.412,36.439V18.013h13.187v3.105h-9.663v4.038h8.96v3.106h-8.96v5.071h9.966v3.105H136.412z"/>
<path fill="#FFFFFF" d="M151.613,31.471v-3.52h6.744v3.52H151.613z"/>
<path fill="#FFFFFF" d="M159.365,36.439V18.013h3.523l7.248,12.216V18.013h3.322v18.426h-3.624l-7.147-11.903v11.903H159.365z"/>
<path fill="#FFFFFF" d="M175.574,27.332c0-1.865,0.3-3.417,0.804-4.659c0.403-0.932,1.007-1.761,1.611-2.485
	c0.705-0.724,1.511-1.242,2.314-1.656c1.108-0.518,2.418-0.725,3.826-0.725c2.619,0,4.732,0.829,6.344,2.485
	c1.609,1.656,2.314,4.038,2.314,7.041c0,3.001-0.806,5.277-2.314,6.935c-1.611,1.657-3.624,2.483-6.243,2.483
	c-2.617,0-4.73-0.826-6.342-2.483C176.378,32.505,175.574,30.229,175.574,27.332z M179.299,27.228c0,2.068,0.502,3.622,1.408,4.762
	c0.906,1.033,2.115,1.655,3.523,1.655c1.41,0,2.619-0.519,3.523-1.552c0.906-1.036,1.41-2.693,1.41-4.762
	c0-2.072-0.403-3.625-1.31-4.659c-0.904-1.036-2.113-1.554-3.523-1.554c-1.509,0-2.718,0.518-3.624,1.554
	C179.801,23.501,179.299,25.156,179.299,27.228z"/>
<path fill="#FFFFFF" d="M193.796,30.436l3.522-0.312c0.202,1.243,0.604,2.072,1.308,2.691c0.604,0.518,1.511,0.829,2.619,0.829
	c1.207,0,2.013-0.208,2.617-0.726c0.604-0.516,0.906-1.137,0.906-1.759c0-0.414-0.101-0.828-0.403-1.14
	c-0.201-0.311-0.705-0.518-1.309-0.828c-0.403-0.104-1.408-0.414-2.92-0.827c-1.911-0.518-3.321-1.138-4.026-1.863
	c-1.108-1.036-1.609-2.278-1.609-3.727c0-0.932,0.3-1.761,0.804-2.588c0.503-0.828,1.208-1.449,2.216-1.864
	c1.005-0.414,2.113-0.621,3.523-0.621c2.214,0,3.926,0.518,5.034,1.554c1.105,1.035,1.71,2.38,1.811,4.038l-3.624,0.207
	c-0.201-0.932-0.503-1.657-1.007-2.072c-0.504-0.414-1.308-0.622-2.314-0.622c-1.008,0-1.914,0.208-2.418,0.622
	c-0.4,0.311-0.603,0.622-0.603,1.14c0,0.414,0.202,0.829,0.504,1.138c0.502,0.415,1.509,0.829,3.322,1.242
	c1.71,0.414,3.02,0.829,3.926,1.346c0.905,0.518,1.509,1.036,2.013,1.863s0.705,1.759,0.705,2.898c0,1.036-0.302,2.069-0.806,3.002
	c-0.604,0.932-1.41,1.554-2.415,2.071c-1.008,0.412-2.317,0.619-3.927,0.619c-2.216,0-4.027-0.516-5.235-1.654
	C194.801,34.059,193.997,32.505,193.796,30.436z"/>
</svg>
