<?xml version="1.0" encoding="utf-8"?>
<svg version="1.1"
	 xmlns="http://www.w3.org/2000/svg" xmlns:xlink="http://www.w3.org/1999/xlink" xmlns:a="http://ns.adobe.com/AdobeSVGViewerExtensions/3.0/"
	 x="0px" y="0px" width="225px" height="52px" viewBox="0 0 225 52" enable-background="new 0 0 225 52" xml:space="preserve">
<path fill="#8D8D8D" d="M219.007,52H6.033C2.715,52,0,49.215,0,45.81V6.19C0,2.786,2.715,0,6.033,0h212.974
	c3.319,0,6.034,2.786,6.034,6.19v39.723C225.042,49.215,222.327,52,219.007,52z"/>
<path fill="#FFFFFF" d="M29.865,36.496V18.203h13.172v3.1h-9.653v4.032h8.949v3.102h-8.949v4.96h9.955v3.101H29.865z"/>
<path fill="#FFFFFF" d="M44.546,30.502l3.52-0.311c0.201,1.24,0.603,2.067,1.307,2.688c0.704,0.619,1.508,0.827,2.614,0.827
	c1.207,0,2.011-0.208,2.615-0.725c0.603-0.515,0.904-1.137,0.904-1.757c0-0.413-0.1-0.825-0.402-1.136
	c-0.301-0.312-0.704-0.518-1.307-0.826c-0.402-0.104-1.408-0.414-2.916-0.827c-1.911-0.518-3.318-1.137-4.022-1.862
	c-1.106-1.034-1.608-2.273-1.608-3.721c0-0.929,0.301-1.756,0.804-2.583c0.503-0.827,1.207-1.447,2.212-1.861
	c1.005-0.414,2.112-0.62,3.52-0.62c2.212,0,3.921,0.517,5.027,1.55c1.107,1.034,1.71,2.376,1.81,4.03l-3.619,0.208
	c-0.201-0.93-0.503-1.653-1.006-2.067c-0.502-0.414-1.307-0.62-2.313-0.62c-1.006,0-1.911,0.206-2.414,0.62
	c-0.402,0.309-0.603,0.62-0.603,1.137c0,0.414,0.201,0.827,0.503,1.136c0.503,0.414,1.508,0.828,3.318,1.24
	c1.81,0.414,3.016,0.828,3.921,1.344c0.805,0.414,1.509,1.034,2.011,1.86c0.503,0.827,0.704,1.758,0.704,2.895
	c0,1.034-0.302,2.067-0.804,2.996c-0.603,0.931-1.408,1.552-2.413,2.067c-1.006,0.414-2.313,0.622-3.922,0.622
	c-2.212,0-4.022-0.517-5.229-1.654C45.551,34.016,44.747,32.569,44.546,30.502z"/>
<path fill="#FFFFFF" d="M69.383,29.777v-3.099h7.743v7.337c-0.704,0.725-1.81,1.447-3.318,1.964
	c-1.407,0.62-2.916,0.828-4.324,0.828c-1.91,0-3.519-0.414-4.826-1.241c-1.408-0.826-2.414-1.963-3.117-3.41
	c-0.704-1.447-1.005-3.102-1.005-4.857c0-1.862,0.402-3.619,1.206-5.066c0.805-1.448,1.911-2.584,3.419-3.41
	c1.106-0.62,2.514-0.931,4.224-0.931c2.212,0,3.921,0.517,5.229,1.447c1.207,0.931,2.011,2.273,2.413,3.927l-3.72,0.724
	c-0.201-0.93-0.704-1.654-1.407-2.171c-0.704-0.517-1.508-0.826-2.614-0.826c-1.609,0-2.816,0.517-3.721,1.55
	c-0.905,1.034-1.407,2.584-1.407,4.547c0,2.172,0.502,3.823,1.407,4.857c0.905,1.139,2.212,1.655,3.721,1.655
	c0.703,0,1.507-0.105,2.312-0.414c0.805-0.311,1.408-0.723,1.911-1.137v-2.275H69.383z"/>
<path fill="#FFFFFF" d="M78.734,27.504c0-1.859,0.301-3.41,0.804-4.651c0.403-0.929,1.006-1.756,1.609-2.479
	c0.704-0.725,1.508-1.241,2.313-1.654c1.106-0.517,2.414-0.725,3.821-0.725c2.615,0,4.726,0.828,6.335,2.481
	c1.609,1.654,2.413,4.03,2.413,7.028c0,2.998-0.804,5.271-2.313,6.925c-1.609,1.654-3.62,2.481-6.234,2.481
	s-4.726-0.827-6.335-2.481C79.438,32.672,78.734,30.399,78.734,27.504z M82.354,27.299c0,2.066,0.502,3.615,1.407,4.754
	c0.905,1.137,2.112,1.653,3.52,1.653c1.408,0,2.615-0.517,3.52-1.55c0.905-1.034,1.407-2.688,1.407-4.755
	c0-2.067-0.402-3.618-1.307-4.652c-0.904-1.034-2.111-1.55-3.519-1.55c-1.508,0-2.715,0.517-3.621,1.55
	C82.857,23.68,82.354,25.23,82.354,27.299z"/>
<path fill="#FFFFFF" d="M101.761,36.496V21.302h-5.33v-3.1h14.179v3.1h-5.229v15.194H101.761z"/>
<path fill="#FFFFFF" d="M126.196,36.496h-3.921l-1.509-4.134h-7.139l-1.509,4.134h-3.821l6.938-18.293h3.821L126.196,36.496z
	 M119.56,29.263l-2.414-6.822l-2.413,6.822H119.56z"/>
<path fill="#FFFFFF" d="M127.101,18.203h6.536c1.509,0,2.614,0.104,3.419,0.309c1.006,0.311,1.911,0.828,2.715,1.654
	c0.805,0.828,1.308,1.758,1.71,2.998c0.402,1.137,0.604,2.584,0.604,4.341c0,1.551-0.201,2.79-0.503,3.928
	c-0.402,1.344-1.106,2.378-1.911,3.205c-0.604,0.62-1.508,1.137-2.514,1.446c-0.804,0.208-1.81,0.413-3.218,0.413h-6.737V18.203
	H127.101z M130.721,21.302v12.093h2.715c1.006,0,1.71-0.103,2.213-0.206c0.603-0.103,1.105-0.414,1.407-0.723
	c0.402-0.311,0.704-0.931,0.905-1.758c0.201-0.826,0.401-1.965,0.401-3.308c0-1.448-0.1-2.481-0.401-3.307
	c-0.201-0.725-0.604-1.345-1.006-1.758c-0.402-0.413-1.006-0.724-1.71-0.826c-0.503-0.104-1.508-0.208-2.916-0.208H130.721
	L130.721,21.302z"/>
<path fill="#FFFFFF" d="M143.391,27.504c0-1.859,0.302-3.41,0.805-4.651c0.402-0.929,1.006-1.756,1.608-2.479
	c0.704-0.725,1.509-1.241,2.313-1.654c1.106-0.517,2.413-0.725,3.821-0.725c2.615,0,4.727,0.828,6.335,2.481
	c1.609,1.654,2.313,4.03,2.313,7.028c0,2.998-0.804,5.271-2.313,6.925c-1.508,1.654-3.62,2.481-6.234,2.481
	s-4.726-0.827-6.335-2.481C144.094,32.672,143.391,30.399,143.391,27.504z M147.011,27.299c0,2.066,0.503,3.615,1.407,4.754
	c0.905,1.034,2.111,1.653,3.52,1.653s2.615-0.517,3.521-1.55c0.904-1.034,1.407-2.688,1.407-4.755c0-2.067-0.402-3.618-1.308-4.652
	s-2.111-1.55-3.52-1.55c-1.509,0-2.715,0.517-3.62,1.55C147.514,23.68,147.011,25.23,147.011,27.299z"/>
<path fill="#FFFFFF" d="M198.193,26.678l7.44-7.649c0.604-0.62,0.604-1.55,0-2.067c-0.602-0.517-1.507-0.62-2.011,0l-7.44,7.649
	l-7.44-7.649c-0.604-0.62-1.509-0.62-2.012,0s-0.603,1.55,0,2.067l7.44,7.649l-7.44,7.648c-0.603,0.619-0.603,1.55,0,2.067l0,0
	c0.604,0.62,1.509,0.62,2.012,0l7.44-7.649l7.44,7.649c0.604,0.62,1.51,0.62,2.011,0l0,0c0.604-0.62,0.604-1.55,0-2.067
	L198.193,26.678z"/>
</svg>
