<?xml version="1.0" encoding="utf-8"?>
<!-- Generator: Adobe Illustrator 20.0.0, SVG Export Plug-In . SVG Version: 6.00 Build 0)  -->
<svg version="1.1" id="Camada_1" xmlns="http://www.w3.org/2000/svg" xmlns:xlink="http://www.w3.org/1999/xlink" x="0px" y="0px"
	 viewBox="0 0 225 52" style="enable-background:new 0 0 225 52;" xml:space="preserve">
<style type="text/css">
	.st0{fill:#05AD96;}
	.st1{fill:#FFFFFF;}
</style>
<path class="st0" d="M218.2,51.1H6.8c-3.3,0-6-2.7-6-6V6.9c0-3.3,2.7-6,6-6h211.5c3.3,0,6,2.7,6,6v38.2
	C224.2,48.4,221.6,51.1,218.2,51.1z"/>
<g>
	<path class="st1" d="M42,29.2l3.2,1c-0.5,1.8-1.3,3.1-2.5,4s-2.6,1.3-4.4,1.3c-2.2,0-4-0.8-5.4-2.3c-1.4-1.5-2.1-3.6-2.1-6.2
		c0-2.8,0.7-4.9,2.1-6.4c1.4-1.5,3.3-2.3,5.6-2.3c2,0,3.7,0.6,4.9,1.8c0.8,0.7,1.3,1.7,1.7,3l-3.3,0.8c-0.2-0.9-0.6-1.5-1.2-2
		c-0.6-0.5-1.4-0.7-2.3-0.7c-1.2,0-2.2,0.4-3,1.3c-0.8,0.9-1.1,2.3-1.1,4.3c0,2.1,0.4,3.6,1.1,4.5c0.8,0.9,1.7,1.3,2.9,1.3
		c0.9,0,1.7-0.3,2.3-0.8C41.3,31.3,41.7,30.4,42,29.2z"/>
	<path class="st1" d="M47.5,27.1c0-1.7,0.3-3.1,0.8-4.2c0.4-0.8,0.9-1.6,1.5-2.3c0.7-0.7,1.4-1.2,2.1-1.5c1-0.4,2.2-0.7,3.6-0.7
		c2.4,0,4.4,0.8,5.9,2.3c1.5,1.5,2.2,3.6,2.2,6.3c0,2.7-0.7,4.8-2.2,6.3s-3.4,2.3-5.8,2.3c-2.5,0-4.4-0.8-5.9-2.3
		C48.2,31.8,47.5,29.8,47.5,27.1z M50.9,27c0,1.9,0.4,3.3,1.3,4.3c0.9,1,2,1.5,3.3,1.5s2.4-0.5,3.3-1.4c0.9-1,1.3-2.4,1.3-4.3
		c0-1.9-0.4-3.3-1.2-4.2c-0.8-0.9-1.9-1.4-3.3-1.4s-2.5,0.5-3.3,1.4S50.9,25.1,50.9,27z"/>
	<path class="st1" d="M66.1,35.3V18.8h3.3l6.8,11.1V18.8h3.1v16.6h-3.4l-6.7-10.8v10.8H66.1z"/>
	<path class="st1" d="M86.5,35.3V21.6h-4.9v-2.8h13.2v2.8h-4.9v13.8H86.5z"/>
	<path class="st1" d="M96.8,35.3V18.8h3.3v16.6H96.8z"/>
	<path class="st1" d="M103.4,35.3V18.8h3.3l6.8,11.1V18.8h3.1v16.6h-3.4l-6.7-10.8v10.8H103.4z"/>
	<path class="st1" d="M120,18.8h3.3v9c0,1.4,0,2.3,0.1,2.8c0.1,0.7,0.5,1.2,1,1.6s1.3,0.6,2.2,0.6c0.9,0,1.7-0.2,2.1-0.6
		s0.8-0.9,0.9-1.4s0.1-1.5,0.1-2.8v-9.2h3.3v8.7c0,2-0.1,3.4-0.3,4.2s-0.5,1.5-1,2.1s-1.1,1-1.9,1.3c-0.8,0.3-1.9,0.5-3.2,0.5
		c-1.6,0-2.8-0.2-3.6-0.5c-0.8-0.4-1.5-0.8-1.9-1.4c-0.5-0.6-0.8-1.2-0.9-1.8c-0.2-0.9-0.3-2.3-0.3-4.2V18.8z"/>
	<path class="st1" d="M151.7,35.3H148l-1.4-3.8H140l-1.4,3.8h-3.5l6.4-16.6h3.5L151.7,35.3z M145.5,28.8l-2.3-6.1l-2.2,6.1H145.5z"
		/>
	<path class="st1" d="M153.5,35.3V18.8h7c1.8,0,3.1,0.1,3.9,0.4c0.8,0.3,1.4,0.8,1.9,1.6c0.5,0.8,0.7,1.6,0.7,2.6
		c0,1.2-0.4,2.3-1.1,3.1c-0.7,0.8-1.8,1.3-3.3,1.5c0.7,0.4,1.3,0.9,1.8,1.4c0.5,0.5,1.1,1.4,1.9,2.7l2,3.2h-4l-2.4-3.6
		c-0.9-1.3-1.4-2.1-1.8-2.4s-0.7-0.6-1-0.7s-0.9-0.2-1.7-0.2h-0.7v6.9H153.5z M156.8,25.8h2.5c1.6,0,2.6-0.1,3-0.2
		c0.4-0.1,0.7-0.4,0.9-0.7s0.3-0.7,0.3-1.2c0-0.6-0.1-1-0.4-1.3c-0.3-0.3-0.7-0.6-1.3-0.6c-0.3,0-1.1-0.1-2.4-0.1h-2.6V25.8z"/>
</g>
<path class="st1" d="M208,26.1l-0.1-0.1c0,0-0.1,0-0.1-0.1l-10.5-10.5c-0.4-0.4-1.1-0.4-1.5,0l-0.1,0.1c-0.4,0.4-0.4,1.1,0,1.5
	l9.8,9.8l-9.8,9.8c-0.4,0.4-0.4,1.1,0,1.5l0.1,0.1c0.4,0.4,1.1,0.4,1.5,0l10.5-10.5c0,0,0.1,0,0.1-0.1l0.1-0.1
	c0.2-0.2,0.3-0.5,0.3-0.8C208.3,26.6,208.2,26.3,208,26.1z"/>
</svg>
