<?xml version="1.0" encoding="UTF-8"?>
<!DOCTYPE svg PUBLIC "-//W3C//DTD SVG 1.1//EN" "http://www.w3.org/Graphics/SVG/1.1/DTD/svg11.dtd">
<!-- Creator: CorelDRAW -->
<svg xmlns="http://www.w3.org/2000/svg" xml:space="preserve" width="4.2332mm" height="4.2332mm" style="shape-rendering:geometricPrecision; text-rendering:geometricPrecision; image-rendering:optimizeQuality; fill-rule:evenodd; clip-rule:evenodd"
viewBox="0 0 4.2332 4.2332"
 xmlns:xlink="http://www.w3.org/1999/xlink"
 version="1.1">
 <defs>
  <style type="text/css">
   <![CDATA[
    .fil0 {fill:#AAAAAA}
    .fil1 {fill:white}
   ]]>
  </style>
 </defs>
 <g id="Layer_x0020_1">
  <metadata id="CorelCorpID_0Corel-Layer"/>
  <ellipse class="fil0" cx="2.1208" cy="2.1488" rx="2.1157" ry="2.1156"/>
  <g id="_144456744">
  </g>
  <g id="_144456672">
  </g>
  <g id="_144456600">
  </g>
  <g id="_144456528">
  </g>
  <g id="_144456456">
  </g>
  <g id="_144456384">
  </g>
  <g id="_144456312">
  </g>
  <g id="_144456240">
  </g>
  <g id="_144456168">
  </g>
  <g id="_144456096">
  </g>
  <g id="_144456024">
  </g>
  <g id="_144455952">
  </g>
  <g id="_144455880">
  </g>
  <g id="_144455160">
  </g>
  <g id="_144458520">
  </g>
  <g id="_144455304">
   <g>
    <path id="_144458592" class="fil1" d="M-40.5296 8.7531l-0.0116 0 0 0.0099 0.0116 0 0 -0.0099 0 0zm-0.0085 0.0085l-0.0006 0 0 -0.0072 0.0006 0 0 0.0072zm0.003 0l-0.0006 0 0 -0.0072 0.0006 0 0 0.0072zm0.003 0l-0.0006 0 0 -0.0072 0.0006 0 0 0.0072z"/>
    <path id="_144455088" class="fil1" d="M-40.5285 8.7512l-0.0023 -0.001 0.0012 -0.0017 -0.0051 -0.0023 -0.0012 0.0017 -0.0025 -0.0011 -0.0012 0.0015 0.01 0.0045 0.0011 -0.0016zm-0.0058 -0.0037l0.0031 0.0013 -0.0007 0.0009 -0.003 -0.0014 0.0006 -0.0008z"/>
   </g>
  </g>
  <g id="_144455208">
  </g>
  <g id="_144455184">
  </g>
  <g id="_144458496">
  </g>
  <g id="_144455256">
  </g>
  <g id="_144455496">
  </g>
  <g id="_144458688">
  </g>
  <g id="_144455856">
  </g>
  <g id="_144455136">
  </g>
  <g id="_144455376">
  </g>
  <g id="_144455616">
  </g>
  <g id="_144455736">
  </g>
  <g id="_144458832">
  </g>
  <g id="_144458952">
  </g>
  <g id="_144458880">
  </g>
  <g id="_144458928">
  </g>
  <g id="_144459360">
   <g>
    <path id="_144459024" class="fil1" d="M-40.5296 8.7531l-0.0116 0 0 0.0099 0.0116 0 0 -0.0099 0 0zm-0.0085 0.0085l-0.0006 0 0 -0.0072 0.0006 0 0 0.0072zm0.003 0l-0.0006 0 0 -0.0072 0.0006 0 0 0.0072zm0.003 0l-0.0006 0 0 -0.0072 0.0006 0 0 0.0072z"/>
    <path id="_144459288" class="fil1" d="M-40.5285 8.7512l-0.0023 -0.001 0.0012 -0.0017 -0.0051 -0.0023 -0.0012 0.0017 -0.0025 -0.0011 -0.0012 0.0015 0.01 0.0045 0.0011 -0.0016zm-0.0058 -0.0037l0.0031 0.0013 -0.0007 0.0009 -0.003 -0.0014 0.0006 -0.0008z"/>
   </g>
  </g>
  <g id="_144459696">
  </g>
  <g id="_144459864">
  </g>
  <g id="_144462336">
  </g>
  <g id="_144462648">
  </g>
  <g id="_144459984">
  </g>
  <g id="_144462288">
  </g>
  <g id="_144462792">
  </g>
  <g id="_144462744">
  </g>
  <g id="_144459264">
  </g>
  <g id="_144462360">
  </g>
  <g id="_144462984">
  </g>
  <g id="_144462504">
  </g>
  <g id="_144462696">
  </g>
  <g id="_144462264">
  </g>
  <g id="_144459888">
  </g>
  <g id="_144463608">
   <g>
    <path id="_144463440" class="fil1" d="M-40.5296 8.7531l-0.0116 0 0 0.0099 0.0116 0 0 -0.0099 0 0zm-0.0085 0.0085l-0.0006 0 0 -0.0072 0.0006 0 0 0.0072zm0.003 0l-0.0006 0 0 -0.0072 0.0006 0 0 0.0072zm0.003 0l-0.0006 0 0 -0.0072 0.0006 0 0 0.0072z"/>
    <path id="_144463128" class="fil1" d="M-40.5285 8.7512l-0.0023 -0.001 0.0012 -0.0017 -0.0051 -0.0023 -0.0012 0.0017 -0.0025 -0.0011 -0.0012 0.0015 0.01 0.0045 0.0011 -0.0016zm-0.0058 -0.0037l0.0031 0.0013 -0.0007 0.0009 -0.003 -0.0014 0.0006 -0.0008z"/>
   </g>
  </g>
  <g id="_144463272">
  </g>
  <g id="_144464184">
  </g>
  <g id="_144463296">
  </g>
  <g id="_144463320">
  </g>
  <g id="_143722856">
  </g>
  <g id="_143711648">
  </g>
  <g id="_143712488">
  </g>
  <g id="_143708240">
  </g>
  <g id="_143989992">
  </g>
  <g id="_144780488">
  </g>
  <g id="_144780560">
  </g>
  <g id="_138697672">
  </g>
  <g id="_138697600">
  </g>
  <g id="_138697528">
  </g>
  <g id="_142275024">
  </g>
  <g id="_143712704">
   <g id="Delete__x002f__Trash">
    <path id="_142275048" class="fil1" d="M1.3038 3.4207c0,0 0.0444,0.2019 0.2725,0.2019l1.0312 0c0.2281,0 0.2724,-0.2019 0.2724,-0.2019l0.2036 -1.9796 -1.9833 0 0.2036 1.9796zm1.1848 -1.6822c0,-0.0548 0.0443,-0.0991 0.0991,-0.0991 0.0548,0 0.0991,0.0443 0.0991,0.0991l-0.0991 1.4875c0,0.0547 -0.0444,0.0991 -0.0991,0.0991 -0.0548,0 -0.0992,-0.0444 -0.0992,-0.0991l0.0992 -1.4875zm-0.4958 0c0,-0.0548 0.0443,-0.0991 0.0991,-0.0991 0.0548,0 0.0991,0.0443 0.0991,0.0991l0 1.4875c0,0.0547 -0.0443,0.0991 -0.0991,0.0991 -0.0548,0 -0.0991,-0.0444 -0.0991,-0.0991l0 -1.4875zm-0.3967 -0.0991c0.0548,0 0.0992,0.0443 0.0992,0.0991l0.0991 1.4875c0,0.0547 -0.0444,0.0991 -0.0991,0.0991 -0.0548,0 -0.0992,-0.0444 -0.0992,-0.0991l-0.0992 -1.4875c0,-0.0548 0.0444,-0.0991 0.0992,-0.0991zm1.4279 -0.5949l-0.4363 0 0 -0.1984c0,-0.1505 -0.0486,-0.1984 -0.1983,-0.1984l-0.595 0c-0.1373,0 -0.1983,0.0666 -0.1983,0.1984l0 0.1984 -0.4363 0c-0.0877,0 -0.1587,0.0667 -0.1587,0.1489 0,0.0822 0.071,0.1488 0.1587,0.1488l1.8642 0c0.0877,0 0.1587,-0.0666 0.1587,-0.1488 0,-0.0823 -0.071,-0.1489 -0.1587,-0.1489zm-0.6346 0l-0.595 0 0 -0.1984 0.595 0 0 0.1984 0 0z"/>
   </g>
   <g>
   </g>
   <g>
   </g>
   <g>
   </g>
   <g>
   </g>
   <g>
   </g>
   <g>
   </g>
   <g>
   </g>
   <g>
   </g>
   <g>
   </g>
   <g>
   </g>
   <g>
   </g>
   <g>
   </g>
   <g>
   </g>
   <g>
   </g>
   <g>
   </g>
  </g>
 </g>
</svg>
