<?xml version="1.0" encoding="UTF-8"?>
<!DOCTYPE svg PUBLIC "-//W3C//DTD SVG 1.1//EN" "http://www.w3.org/Graphics/SVG/1.1/DTD/svg11.dtd">
<!-- Creator: CorelDRAW -->
<svg xmlns="http://www.w3.org/2000/svg" xml:space="preserve" width="4.4026mm" height="4.4026mm" style="shape-rendering:geometricPrecision; text-rendering:geometricPrecision; image-rendering:optimizeQuality; fill-rule:evenodd; clip-rule:evenodd"
viewBox="0 0 4.4026 4.4026"
 xmlns:xlink="http://www.w3.org/1999/xlink"
 version="1.1">
 <defs>
  <style type="text/css">
   <![CDATA[
    .fil0 {fill:#AAAAAA}
    .fil1 {fill:white}
   ]]>
  </style>
 </defs>
 <g id="Layer_x0020_1">
  <metadata id="CorelCorpID_0Corel-Layer"/>
  <ellipse class="fil0" cx="2.20548" cy="2.23349" rx="2.11571" ry="2.11565"/>
  <g id="_144456744">
  </g>
  <g id="_144456672">
  </g>
  <g id="_144456600">
  </g>
  <g id="_144456528">
  </g>
  <g id="_144456456">
  </g>
  <g id="_144456384">
  </g>
  <g id="_144456312">
  </g>
  <g id="_144456240">
  </g>
  <g id="_144456168">
  </g>
  <g id="_144456096">
  </g>
  <g id="_144456024">
  </g>
  <g id="_144455952">
  </g>
  <g id="_144455880">
  </g>
  <g id="_144455160">
  </g>
  <g id="_144458520">
  </g>
  <g id="_144455304">
   <g>
    <path id="_144458592" class="fil1" d="M-40.4449 8.8378l-0.0116 0 0 0.0099 0.0116 0 0 -0.0099 0 0zm-0.0085 0.0085l-0.0006 0 0 -0.0072 0.0006 0 0 0.0072zm0.003 0l-0.0006 0 0 -0.0072 0.0006 0 0 0.0072zm0.003 0l-0.0006 0 0 -0.0072 0.0006 0 0 0.0072z"/>
    <path id="_144455088" class="fil1" d="M-40.4438 8.8359l-0.0023 -0.001 0.0012 -0.0017 -0.0051 -0.0023 -0.0012 0.0017 -0.0025 -0.0011 -0.0012 0.0015 0.01 0.0045 0.0011 -0.0016zm-0.0058 -0.0037l0.0031 0.0013 -0.0007 0.0009 -0.003 -0.0014 0.0006 -0.0008z"/>
   </g>
  </g>
  <g id="_144455208">
  </g>
  <g id="_144455184">
  </g>
  <g id="_144458496">
  </g>
  <g id="_144455256">
  </g>
  <g id="_144455496">
  </g>
  <g id="_144458688">
  </g>
  <g id="_144455856">
  </g>
  <g id="_144455136">
  </g>
  <g id="_144455376">
  </g>
  <g id="_144455616">
  </g>
  <g id="_144455736">
  </g>
  <g id="_144458832">
  </g>
  <g id="_144458952">
  </g>
  <g id="_144458880">
  </g>
  <g id="_144458928">
  </g>
  <g id="_144459360">
   <g>
    <path id="_144459024" class="fil1" d="M-40.4449 8.8378l-0.0116 0 0 0.0099 0.0116 0 0 -0.0099 0 0zm-0.0085 0.0085l-0.0006 0 0 -0.0072 0.0006 0 0 0.0072zm0.003 0l-0.0006 0 0 -0.0072 0.0006 0 0 0.0072zm0.003 0l-0.0006 0 0 -0.0072 0.0006 0 0 0.0072z"/>
    <path id="_144459288" class="fil1" d="M-40.4438 8.8359l-0.0023 -0.001 0.0012 -0.0017 -0.0051 -0.0023 -0.0012 0.0017 -0.0025 -0.0011 -0.0012 0.0015 0.01 0.0045 0.0011 -0.0016zm-0.0058 -0.0037l0.0031 0.0013 -0.0007 0.0009 -0.003 -0.0014 0.0006 -0.0008z"/>
   </g>
  </g>
  <g id="_144459696">
  </g>
  <g id="_144459864">
  </g>
  <g id="_144462336">
  </g>
  <g id="_144462648">
  </g>
  <g id="_144459984">
  </g>
  <g id="_144462288">
  </g>
  <g id="_144462792">
  </g>
  <g id="_144462744">
  </g>
  <g id="_144459264">
  </g>
  <g id="_144462360">
  </g>
  <g id="_144462984">
  </g>
  <g id="_144462504">
  </g>
  <g id="_144462696">
  </g>
  <g id="_144462264">
  </g>
  <g id="_144459888">
  </g>
  <g id="_144463608">
   <g>
    <path id="_144463440" class="fil1" d="M-40.4449 8.8378l-0.0116 0 0 0.0099 0.0116 0 0 -0.0099 0 0zm-0.0085 0.0085l-0.0006 0 0 -0.0072 0.0006 0 0 0.0072zm0.003 0l-0.0006 0 0 -0.0072 0.0006 0 0 0.0072zm0.003 0l-0.0006 0 0 -0.0072 0.0006 0 0 0.0072z"/>
    <path id="_144463128" class="fil1" d="M-40.4438 8.8359l-0.0023 -0.001 0.0012 -0.0017 -0.0051 -0.0023 -0.0012 0.0017 -0.0025 -0.0011 -0.0012 0.0015 0.01 0.0045 0.0011 -0.0016zm-0.0058 -0.0037l0.0031 0.0013 -0.0007 0.0009 -0.003 -0.0014 0.0006 -0.0008z"/>
   </g>
  </g>
  <g id="_144463272">
  </g>
  <g id="_144464184">
  </g>
  <g id="_144463296">
  </g>
  <g id="_144463320">
  </g>
  <g id="_143722856">
  </g>
  <g id="_143711648">
  </g>
  <g id="_143712488">
  </g>
  <g id="_143708240">
  </g>
  <g id="_143989992">
  </g>
  <g id="_144780488">
  </g>
  <g id="_144780560">
  </g>
  <g id="_138697672">
  </g>
  <g id="_138697600">
  </g>
  <g id="_138697528">
  </g>
  <g id="_142275024">
  </g>
  <g id="_143712704">
   <g id="Delete__x002f__Trash">
    <path id="_142275048" class="fil1" d="M1.261 3.7847c0,0 0.0538,0.2448 0.3304,0.2448l1.2506 0c0.2765,0 0.3303,-0.2448 0.3303,-0.2448l0.2469 -2.4007 -2.4051 0 0.2469 2.4007zm1.4367 -2.0399c0,-0.0665 0.0538,-0.1203 0.1202,-0.1203 0.0664,0 0.1203,0.0538 0.1203,0.1203l-0.1203 1.8037c0,0.0664 -0.0538,0.1203 -0.1202,0.1203 -0.0664,0 -0.1203,-0.0539 -0.1203,-0.1203l0.1203 -1.8037zm-0.6013 0c0,-0.0665 0.0539,-0.1203 0.1203,-0.1203 0.0664,0 0.1202,0.0538 0.1202,0.1203l0 1.8037c0,0.0664 -0.0538,0.1203 -0.1202,0.1203 -0.0665,0 -0.1203,-0.0539 -0.1203,-0.1203l0 -1.8037zm-0.481 -0.1203c0.0664,0 0.1203,0.0538 0.1203,0.1203l0.1202 1.8037c0,0.0664 -0.0538,0.1203 -0.1202,0.1203 -0.0665,0 -0.1203,-0.0539 -0.1203,-0.1203l-0.1202 -1.8037c0,-0.0665 0.0538,-0.1203 0.1202,-0.1203zm1.7316 -0.7213l-0.5291 0 0 -0.2407c0,-0.1824 -0.059,-0.2405 -0.2405,-0.2405l-0.7215 0c-0.1665,0 -0.2405,0.0806 -0.2405,0.2405l0 0.2407 -0.5291 0c-0.1063,0 -0.1924,0.0807 -0.1924,0.1805 0,0.0997 0.0861,0.1804 0.1924,0.1804l2.2607 0c0.1064,0 0.1924,-0.0807 0.1924,-0.1804 0,-0.0998 -0.086,-0.1805 -0.1924,-0.1805zm-0.7696 0l-0.7215 0 0 -0.2407 0.7215 0 0 0.2407 0 0z"/>
   </g>
   <g>
   </g>
   <g>
   </g>
   <g>
   </g>
   <g>
   </g>
   <g>
   </g>
   <g>
   </g>
   <g>
   </g>
   <g>
   </g>
   <g>
   </g>
   <g>
   </g>
   <g>
   </g>
   <g>
   </g>
   <g>
   </g>
   <g>
   </g>
   <g>
   </g>
  </g>
 </g>
</svg>
