<?xml version="1.0" encoding="utf-8"?>
<!-- Generator: Adobe Illustrator 18.0.0, SVG Export Plug-In . SVG Version: 6.00 Build 0)  -->
<!DOCTYPE svg PUBLIC "-//W3C//DTD SVG 1.0//EN" "http://www.w3.org/TR/2001/REC-SVG-20010904/DTD/svg10.dtd">
<svg version="1.0" id="Camada_1" xmlns="http://www.w3.org/2000/svg" xmlns:xlink="http://www.w3.org/1999/xlink" x="0px" y="0px"
	 width="25px" height="25px" viewBox="0 0 25 25" enable-background="new 0 0 25 25" xml:space="preserve">
<g>
	<path fill="#E2183D" d="M25,25H5.5c0,0-5.5,0-5.5-5.5V0h19.5c0,0,5.5,0,5.5,5.5V25L25,25z"/>
	<polygon fill="#FFFFFF" points="11.4,21.5 10.1,21.5 10.1,15.2 11.4,15.2 11.4,21.5 	"/>
	<polygon fill="#FFFFFF" points="14.5,21.5 12.5,21.5 12.5,12.8 14.5,12.8 14.5,21.5 	"/>
	<path fill="#FFFFFF" d="M9,6.8c0,0,2-2,5.5-1.3c0,0,1.5,0.2,2.7,1.3c0,0,0.2,0.2,0.3,0c0,0,0.2-0.1,0-0.3c0,0-1-1.4-3-2
		c0,0-2.7-1-5.5,0.3c0,0-1.7,0.7-2.6,2.6c0,0-1.3,0.4-2.4,1c0,0-0.3,0.1-0.2,0.3c0,0,0.1,0.2,0.4,0c0,0,0.9-0.3,1.8-0.5
		c0,0-0.7,1.9,0,4.2c0.3,1,1,2.1,1.9,3c0,0,0.2,0.2,0.3,0.1c0,0,0.1-0.1,0-0.3c0,0-0.8-1.1-1-2.7C7,11.2,7.2,9.4,8.1,7.9
		c0,0,3.5-0.5,6.4,0.6c0,0,5,1.6,3.8,4.7c0,0-0.4,1.1-1.8,2c0,0-0.2,0.1-0.1,0.3c0,0,0.1,0.2,0.3,0.1c0,0,2.1-0.7,3-2.4
		c0,0,1.9-2.8-2.5-5.2c0,0-1.2-0.6-2.8-1C14.5,7.1,11.7,6.4,9,6.8"/>
</g>
</svg>
