<?xml version="1.0" encoding="utf-8"?>
<!-- Generator: Adobe Illustrator 18.0.0, SVG Export Plug-In . SVG Version: 6.00 Build 0)  -->
<!DOCTYPE svg PUBLIC "-//W3C//DTD SVG 1.0//EN" "http://www.w3.org/TR/2001/REC-SVG-20010904/DTD/svg10.dtd">
<svg version="1.0" id="Camada_1" xmlns="http://www.w3.org/2000/svg" xmlns:xlink="http://www.w3.org/1999/xlink" x="0px" y="0px"
	 width="31px" height="23px" viewBox="0 0 31 23" enable-background="new 0 0 31 23" xml:space="preserve">
<g>
	<path fill="#FFF000" d="M29,23H2c-1.1,0-2-0.9-2-2V2c0-1.1,0.9-2,2-2l27,0c1.1,0,2,0.9,2,2v19C31,22.1,30.1,23,29,23z"/>
	<g>
		<path fill="#E22727" d="M7.8,12.4c0-1.2,0-2,0.1-2.4c0.1-0.4,0.2-0.7,0.3-1c0.2-0.5,0.6-0.9,1.1-1.2c0.5-0.4,1.1-0.6,1.9-0.6
			c0.8,0,1.4,0.2,1.9,0.6c0.5,0.4,0.9,0.8,1.1,1.2c0.2,0.2,0.3,0.6,0.3,1c0.1,0.4,0.1,1.2,0.1,2.3c0,1.2,0,1.9-0.1,2.3
			c-0.1,0.4-0.2,0.7-0.3,1c-0.2,0.5-0.6,0.9-1.1,1.2c-0.5,0.4-1.1,0.6-1.9,0.6c-0.8,0-1.4-0.2-1.9-0.6c-0.5-0.4-0.9-0.8-1.1-1.2
			c-0.1-0.2-0.1-0.3-0.2-0.4C8,15.1,8,14.9,7.9,14.7C7.9,14.3,7.8,13.5,7.8,12.4z M9.3,12.4c0,1,0,1.7,0.1,2
			c0.1,0.4,0.2,0.6,0.4,0.9c0.2,0.2,0.4,0.4,0.6,0.5c0.2,0.2,0.5,0.2,0.9,0.2c0.3,0,0.7-0.1,0.9-0.2c0.2-0.1,0.4-0.3,0.6-0.5
			c0.2-0.2,0.3-0.5,0.4-0.9c0.1-0.4,0.1-1,0.1-2s0-1.7-0.1-2C13.1,10,13,9.7,12.8,9.5c-0.1-0.2-0.3-0.4-0.6-0.5
			c-0.3-0.1-0.6-0.2-0.9-0.2c-0.3,0-0.6,0.1-0.9,0.2c-0.3,0.1-0.5,0.3-0.6,0.5C9.6,9.7,9.5,10,9.4,10.4C9.3,10.7,9.3,11.4,9.3,12.4z
			"/>
		<path fill="#E22727" d="M16.7,7.4h1.5v5.2h0l4-5.2h1.7l-3.1,4l3.4,6.1h-1.7l-2.6-4.9l-1.7,1.9v3.1h-1.5V7.4z"/>
	</g>
</g>
</svg>
