<?xml version="1.0" encoding="utf-8"?>
<!-- Generator: Adobe Illustrator 18.0.0, SVG Export Plug-In . SVG Version: 6.00 Build 0)  -->
<!DOCTYPE svg PUBLIC "-//W3C//DTD SVG 1.0//EN" "http://www.w3.org/TR/2001/REC-SVG-20010904/DTD/svg10.dtd">
<svg version="1.0" id="Camada_1" xmlns="http://www.w3.org/2000/svg" xmlns:xlink="http://www.w3.org/1999/xlink" x="0px" y="0px"
	 width="86px" height="18px" viewBox="0 0 86 18" enable-background="new 0 0 86 18" xml:space="preserve">
<g>
	<path fill="#0489C6" d="M13.1,2.3C13.4,1.5,16.3,2,16.3,2s-6-5.1-14.1,2.6c0,0-1.5,0.3-0.5-3.4c0,0-5.1,7.2,2.4,14.2
		c0,0,0.9,1.6-3.1,0.7c0,0,6.1,5.3,14-2.5c0,0,1.4,0.1,0.6,3.1C15.6,16.7,20.5,10.7,13.1,2.3z M13.4,14.2c0.5-2-0.4-2.1-0.4-2.1
		c-5.4,5.2-9.4,1.6-9.4,1.6c2.6,0.6,2-0.4,2-0.4C0.5,8.6,4,3.8,4,3.8C3.3,6.2,4.3,6,4.3,6c5.5-5.2,9.5-1.8,9.5-1.8s-2-0.3-2.2,0.2
		C16.6,10.2,13.4,14.2,13.4,14.2z"/>
	<g enable-background="new    ">
		<path fill="#62676A" d="M28,13.7h-1.5v-1.6h0c-0.7,1.2-1.8,1.8-3.3,1.8c-1.2,0-2.1-0.4-2.8-1.2c-0.7-0.8-1.1-2-1.1-3.4
			c0-1.5,0.4-2.7,1.2-3.7s1.8-1.4,3.2-1.4c1.3,0,2.2,0.5,2.8,1.5h0V0.1H28L28,13.7L28,13.7z M26.5,9.5V8.2c0-0.7-0.2-1.4-0.7-1.9
			c-0.5-0.5-1.2-0.8-1.9-0.8c-0.9,0-1.7,0.3-2.2,1s-0.8,1.6-0.8,2.7c0,1.1,0.3,2,0.8,2.6c0.5,0.6,1.2,0.8,2,0.8
			c0.9,0,1.6-0.3,2.1-0.9C26.2,11.2,26.5,10.4,26.5,9.5z"/>
		<path fill="#62676A" d="M32.8,1.2c0,0.3-0.1,0.5-0.3,0.7c-0.2,0.2-0.4,0.3-0.7,0.3c-0.3,0-0.5-0.1-0.7-0.3
			c-0.2-0.2-0.3-0.4-0.3-0.7c0-0.3,0.1-0.5,0.3-0.7c0.2-0.2,0.4-0.3,0.7-0.3c0.3,0,0.5,0.1,0.7,0.3C32.7,0.7,32.8,1,32.8,1.2z
			 M32.6,13.7H31V4.5h1.5V13.7z"/>
		<path fill="#62676A" d="M43.7,13c0,3.4-1.7,5-5,5c-1.2,0-2.2-0.2-3.1-0.6v-1.5c1.1,0.6,2.1,0.9,3,0.9c2.3,0,3.5-1.2,3.5-3.6v-1h0
			c-0.7,1.2-1.8,1.8-3.3,1.8c-1.2,0-2.1-0.4-2.8-1.2c-0.7-0.8-1.1-1.9-1.1-3.3c0-1.5,0.4-2.8,1.1-3.7c0.8-0.9,1.8-1.4,3.2-1.4
			c1.3,0,2.2,0.5,2.8,1.5h0V4.5h1.5V13z M42.1,9.5V8.2c0-0.7-0.2-1.3-0.7-1.8c-0.5-0.5-1.2-0.8-1.9-0.8c-0.9,0-1.7,0.3-2.2,1
			c-0.5,0.7-0.8,1.6-0.8,2.8c0,1,0.3,1.8,0.8,2.4c0.5,0.6,1.2,0.9,2,0.9c0.9,0,1.5-0.3,2.1-0.9C41.9,11.2,42.1,10.5,42.1,9.5z"/>
		<path fill="#62676A" d="M48.5,1.2c0,0.3-0.1,0.5-0.3,0.7c-0.2,0.2-0.4,0.3-0.7,0.3c-0.3,0-0.5-0.1-0.7-0.3
			c-0.2-0.2-0.3-0.4-0.3-0.7c0-0.3,0.1-0.5,0.3-0.7c0.2-0.2,0.4-0.3,0.7-0.3c0.3,0,0.5,0.1,0.7,0.3C48.4,0.7,48.5,1,48.5,1.2z
			 M48.3,13.7h-1.5V4.5h1.5V13.7z"/>
	</g>
	<g enable-background="new    ">
		<path fill="#0A87C3" d="M56.8,13.8c-0.4,0.1-1,0.2-1.5,0.2c-0.7,0-1.4-0.1-1.9-0.3c-0.6-0.2-1.1-0.5-1.5-1
			c-0.4-0.4-0.7-0.9-0.9-1.5c-0.2-0.6-0.3-1.2-0.3-1.8c0-0.8,0.1-1.5,0.4-2.1c0.2-0.6,0.6-1.2,1-1.6c0.4-0.4,1-0.8,1.6-1
			c0.6-0.2,1.3-0.4,2.1-0.4c0.3,0,0.5,0,0.7,0c0.2,0,0.4,0.1,0.6,0.1c0.2,0,0.4,0.1,0.5,0.1c0.2,0.1,0.3,0.1,0.4,0.2v2
			c-0.3-0.2-0.6-0.4-1-0.5C56.6,6.1,56.2,6,55.8,6c-0.4,0-0.8,0.1-1.2,0.2c-0.4,0.1-0.7,0.3-0.9,0.6c-0.3,0.3-0.5,0.6-0.6,1
			c-0.2,0.4-0.2,0.8-0.2,1.4c0,0.5,0.1,0.9,0.2,1.3c0.1,0.4,0.3,0.7,0.6,1c0.3,0.3,0.6,0.5,0.9,0.6c0.4,0.1,0.8,0.2,1.2,0.2
			c0.2,0,0.4,0,0.6-0.1c0.2,0,0.4-0.1,0.6-0.2c0.2-0.1,0.4-0.1,0.6-0.2c0.2-0.1,0.3-0.2,0.5-0.3v1.9C57.7,13.5,57.3,13.6,56.8,13.8z
			"/>
		<path fill="#0A87C3" d="M61.7,9.7c0,0.8,0.3,1.5,0.8,1.9s1.2,0.7,2.1,0.7c0.5,0,1-0.1,1.5-0.2c0.5-0.2,0.9-0.4,1.3-0.6v1.7
			c-0.1,0.1-0.3,0.2-0.5,0.3c-0.2,0.1-0.5,0.2-0.7,0.3c-0.3,0.1-0.6,0.1-1,0.2c-0.4,0.1-0.7,0.1-1.1,0.1c-0.7,0-1.3-0.1-1.9-0.3
			c-0.6-0.2-1-0.5-1.4-0.9c-0.4-0.4-0.7-0.9-0.9-1.5c-0.2-0.6-0.3-1.3-0.3-2c0-0.8,0.1-1.6,0.4-2.2c0.3-0.6,0.6-1.1,1.1-1.5
			c0.4-0.4,0.9-0.7,1.4-0.9s1.1-0.3,1.6-0.3c0.7,0,1.3,0.1,1.8,0.3c0.5,0.2,0.9,0.5,1.3,0.9c0.3,0.4,0.6,0.8,0.8,1.4
			c0.2,0.5,0.3,1.1,0.3,1.8v1L61.7,9.7L61.7,9.7z M65.9,7.3c-0.1-0.3-0.2-0.5-0.4-0.7c-0.2-0.2-0.4-0.4-0.6-0.5
			C64.7,6,64.4,5.9,64,5.9c-0.3,0-0.6,0.1-0.8,0.2c-0.3,0.1-0.5,0.3-0.7,0.5C62.3,6.7,62.1,7,62,7.2c-0.1,0.3-0.2,0.6-0.3,0.9H66
			C66,7.8,66,7.5,65.9,7.3z"/>
	</g>
	<g enable-background="new    ">
		<path fill="#0A87C3" d="M75.5,6.4c-0.1,0-0.2-0.1-0.3-0.1c-0.1,0-0.2-0.1-0.3-0.1c-0.1,0-0.2,0-0.3,0c-0.3,0-0.6,0.1-0.8,0.2
			C73.4,6.5,73.2,6.7,73,7c-0.2,0.2-0.3,0.5-0.4,0.9c-0.1,0.3-0.2,0.7-0.2,1.2v4.7h-2.1V4.5h2.1v1.8h0c0.1-0.3,0.3-0.6,0.4-0.9
			c0.2-0.2,0.4-0.4,0.6-0.6c0.2-0.2,0.4-0.3,0.7-0.3c0.2-0.1,0.5-0.1,0.7-0.1c0.2,0,0.3,0,0.5,0c0.1,0,0.3,0.1,0.4,0.1v2
			C75.7,6.5,75.6,6.5,75.5,6.4z"/>
	</g>
	<g enable-background="new    ">
		<path fill="#0A87C3" d="M82.8,13.7c-0.1,0-0.3,0.1-0.4,0.1s-0.3,0.1-0.5,0.1c-0.2,0-0.3,0-0.5,0c-1,0-1.7-0.2-2.1-0.7
			c-0.5-0.5-0.7-1.2-0.7-2.2V6.2h-1.6V4.5h1.6V2.4l2.1-0.6v2.7h2.3v1.7h-2.3v4.4c0,0.6,0.1,1,0.3,1.2c0.2,0.2,0.6,0.4,1,0.4
			c0.1,0,0.3,0,0.5-0.1c0.2-0.1,0.3-0.1,0.5-0.2v1.7C83.1,13.6,83,13.7,82.8,13.7z"/>
	</g>
	<g>
		<path fill="#6C6E6F" d="M84.4,0c-0.8,0-1.6,0.7-1.6,1.6s0.7,1.6,1.6,1.6c0.8,0,1.6-0.7,1.6-1.6S85.3,0,84.4,0z M84.4,2.9
			c-0.7,0-1.3-0.6-1.3-1.3s0.5-1.3,1.3-1.3c0.7,0,1.3,0.6,1.3,1.3S85.1,2.9,84.4,2.9z"/>
		<g enable-background="new    ">
			<path fill="#6C6E6F" d="M84.8,2.2l-0.2-0.5c0-0.1-0.1-0.1-0.1-0.1c0,0-0.1,0-0.1,0h-0.1v0.6h-0.3V0.6h0.6c0.1,0,0.2,0,0.3,0
				c0.1,0,0.1,0,0.2,0.1c0,0,0.1,0.1,0.1,0.1c0,0.1,0,0.1,0,0.2c0,0.1,0,0.1,0,0.2c0,0,0,0.1-0.1,0.1c0,0-0.1,0.1-0.1,0.1
				c0,0-0.1,0-0.2,0.1v0c0,0,0,0,0.1,0c0,0,0,0,0.1,0c0,0,0,0,0,0.1c0,0,0,0,0,0.1l0.3,0.5L84.8,2.2z M84.7,1.1
				C84.7,1.1,84.7,1,84.7,1.1c0-0.1-0.1-0.1-0.1-0.2c0,0-0.1,0-0.1,0c0,0-0.1,0-0.1,0h-0.2v0.5h0.2c0.1,0,0.1,0,0.1,0
				c0,0,0.1,0,0.1-0.1c0,0,0.1-0.1,0.1-0.1S84.7,1.1,84.7,1.1z"/>
		</g>
	</g>
</g>
</svg>
