<?xml version="1.0" encoding="utf-8"?>
<!-- Generator: Adobe Illustrator 18.0.0, SVG Export Plug-In . SVG Version: 6.00 Build 0)  -->
<!DOCTYPE svg PUBLIC "-//W3C//DTD SVG 1.0//EN" "http://www.w3.org/TR/2001/REC-SVG-20010904/DTD/svg10.dtd">
<svg version="1.0" id="Camada_1" xmlns="http://www.w3.org/2000/svg" xmlns:xlink="http://www.w3.org/1999/xlink" x="0px" y="0px"
	 width="35px" height="21px" viewBox="0 0 35 21" enable-background="new 0 0 35 21" xml:space="preserve">
<g>
	<path fill="#2E3191" d="M24.4,21C30.2,21,35,16.3,35,10.5C35,4.7,30.2,0,24.4,0H10.6C4.8,0,0,4.7,0,10.5C0,16.3,4.8,21,10.6,21
		H24.4z"/>
	<path fill="#FFFFFF" d="M10.6,0.3c5.7,0,10.3,4.6,10.3,10.2c0,5.6-4.6,10.2-10.3,10.2C5,20.7,0.3,16.1,0.3,10.5
		C0.3,4.9,5,0.3,10.6,0.3L10.6,0.3z M12.7,4.2v12.6c2.7-0.9,4.7-3.4,4.7-6.3C17.4,7.6,15.4,5.1,12.7,4.2L12.7,4.2z M8.7,16.9V4.1
		C5.9,5,3.9,7.5,3.9,10.5C3.9,13.5,5.9,16,8.7,16.9z"/>
</g>
</svg>
