<?xml version="1.0" encoding="utf-8"?>
<!-- Generator: Adobe Illustrator 18.0.0, SVG Export Plug-In . SVG Version: 6.00 Build 0)  -->
<!DOCTYPE svg PUBLIC "-//W3C//DTD SVG 1.0//EN" "http://www.w3.org/TR/2001/REC-SVG-20010904/DTD/svg10.dtd">
<svg version="1.0" id="Camada_1" xmlns="http://www.w3.org/2000/svg" xmlns:xlink="http://www.w3.org/1999/xlink" x="0px" y="0px"
	 width="98px" height="26px" viewBox="0 0 98 26" enable-background="new 0 0 98 26" xml:space="preserve">
<g>
	<g>
		<g>
			<path fill="#203A70" d="M20.1,11.8l4.6-0.3c-0.1,0.7,0,1.3,0.3,1.6c0.4,0.6,1,0.9,1.9,0.9c0.7,0,1.2-0.2,1.7-0.5
				c0.4-0.3,0.7-0.7,0.8-1.1c0.1-0.4,0-0.7-0.3-1c-0.3-0.3-1-0.6-2.3-0.9c-2-0.5-3.4-1.1-4.1-1.8c-0.7-0.8-1-1.7-0.7-2.9
				c0.2-0.8,0.5-1.5,1.2-2.2c0.6-0.7,1.4-1.2,2.4-1.6c1-0.4,2.3-0.6,3.9-0.6c2,0,3.4,0.4,4.3,1.1C34.6,3.3,35,4.5,34.9,6l-4.6,0.3
				c0-0.7-0.1-1.2-0.4-1.5c-0.3-0.3-0.8-0.5-1.5-0.5c-0.6,0-1,0.1-1.3,0.3c-0.3,0.2-0.5,0.5-0.6,0.8c0,0.2,0,0.5,0.2,0.6
				c0.2,0.2,0.7,0.4,1.5,0.6c2,0.4,3.4,0.9,4.2,1.3c0.8,0.4,1.4,1,1.6,1.7c0.3,0.7,0.3,1.4,0.2,2.2c-0.2,1-0.7,1.8-1.4,2.7
				c-0.7,0.8-1.6,1.4-2.7,1.8c-1.1,0.4-2.4,0.6-3.9,0.6c-2.6,0-4.4-0.5-5.2-1.5C20.2,14.6,19.9,13.4,20.1,11.8z"/>
			<path fill="#203A70" d="M37.6,1.8l12.8,0L49.7,5l-8,0l-0.5,2.4l7.5,0L48,10.5l-7.5,0l-0.6,3l8.3,0l-0.7,3.4l-13.1,0L37.6,1.8z"/>
			<path fill="#203A70" d="M52.2,1.8l7.1,0c1.4,0,2.5,0.2,3.3,0.6C63.4,2.8,64,3.3,64.4,4c0.4,0.7,0.7,1.5,0.7,2.4
				c0.1,0.9,0,1.9-0.2,2.9c-0.3,1.6-0.8,2.8-1.3,3.7c-0.6,0.9-1.2,1.6-2,2.2c-0.8,0.6-1.6,1-2.4,1.2c-1.1,0.3-2.1,0.4-2.9,0.4
				l-7.1,0L52.2,1.8z M56.3,5.2l-1.7,8.2l1.2,0c1,0,1.7-0.1,2.2-0.3c0.5-0.2,0.9-0.6,1.2-1.1c0.4-0.5,0.7-1.4,0.9-2.6
				c0.3-1.6,0.3-2.7-0.1-3.3c-0.4-0.6-1.2-0.9-2.5-0.9L56.3,5.2z"/>
			<path fill="#203A70" d="M67.9,1.8l12.8,0l-0.7,3.2l-8,0l-0.5,2.4l7.5,0l-0.6,3.1l-7.5,0l-0.6,3l8.3,0l-0.7,3.4l-13.1,0L67.9,1.8z
				"/>
			<path fill="#203A70" d="M82.1,1.9l5.3,0l1.8,4.6l3.6-4.6l5.2,0l-6.3,7.3l3.7,7.7l-5.4,0L87.9,12l-4.1,4.8l-5.4,0l7-7.8L82.1,1.9z
				"/>
		</g>
		<polygon fill="#FCE200" points="12.3,17.7 94.5,17.8 96.6,18.6 11.1,18.6 		"/>
		<g>
			<path fill="#203A70" d="M51.5,22.8h-1.2V22c0-0.2,0-0.4,0-0.4s-0.1-0.1-0.2-0.1c-0.1,0-0.2,0-0.2,0.1c0,0.1,0,0.2,0,0.5v2.1
				c0,0.2,0,0.4,0,0.4c0,0.1,0.1,0.1,0.2,0.1c0.1,0,0.1,0,0.2-0.1c0-0.1,0-0.2,0-0.5v-0.6h1.2v0.2c0,0.5,0,0.8-0.1,1
				c-0.1,0.2-0.2,0.4-0.4,0.5c-0.2,0.1-0.5,0.2-0.9,0.2c-0.4,0-0.6-0.1-0.9-0.2c-0.2-0.1-0.4-0.3-0.5-0.5c-0.1-0.2-0.1-0.6-0.1-1
				v-1.3c0-0.3,0-0.6,0-0.7c0-0.2,0.1-0.3,0.2-0.5c0.1-0.2,0.3-0.3,0.5-0.4c0.2-0.1,0.4-0.1,0.7-0.1c0.4,0,0.6,0.1,0.9,0.2
				c0.2,0.1,0.4,0.3,0.5,0.5c0.1,0.2,0.1,0.5,0.1,1V22.8z"/>
			<path fill="#203A70" d="M53.7,20.8v3.7h0.7v0.9h-1.9v-4.6L53.7,20.8z"/>
			<path fill="#203A70" d="M56.5,20.8v4.6h-1.2v-4.6H56.5z"/>
			<path fill="#203A70" d="M60.4,22.8h-1.2V22c0-0.2,0-0.4,0-0.4c0-0.1-0.1-0.1-0.2-0.1c-0.1,0-0.2,0-0.2,0.1c0,0.1,0,0.2,0,0.5v2.1
				c0,0.2,0,0.4,0,0.4c0,0.1,0.1,0.1,0.2,0.1c0.1,0,0.1,0,0.2-0.1c0-0.1,0-0.2,0-0.5v-0.6h1.2v0.2c0,0.5,0,0.8-0.1,1
				c-0.1,0.2-0.2,0.4-0.4,0.5c-0.2,0.1-0.5,0.2-0.9,0.2c-0.4,0-0.6-0.1-0.9-0.2c-0.2-0.1-0.4-0.3-0.5-0.5c-0.1-0.2-0.1-0.6-0.1-1
				v-1.3c0-0.3,0-0.6,0-0.7c0-0.2,0.1-0.3,0.2-0.5c0.1-0.2,0.3-0.3,0.5-0.4c0.2-0.1,0.4-0.1,0.7-0.1c0.4,0,0.6,0.1,0.9,0.2
				c0.2,0.1,0.4,0.3,0.5,0.5c0.1,0.2,0.1,0.5,0.1,1L60.4,22.8L60.4,22.8z"/>
			<path fill="#203A70" d="M64.2,23.5c0,0.5,0,0.8,0,1c0,0.2-0.1,0.4-0.2,0.5c-0.1,0.2-0.3,0.3-0.5,0.4c-0.2,0.1-0.4,0.1-0.7,0.1
				c-0.2,0-0.5,0-0.7-0.1c-0.2-0.1-0.4-0.2-0.5-0.4c-0.1-0.2-0.2-0.3-0.2-0.5c0-0.2,0-0.5,0-1v-0.8c0-0.5,0-0.8,0-1s0.1-0.4,0.2-0.5
				c0.1-0.2,0.3-0.3,0.5-0.4c0.2-0.1,0.4-0.1,0.7-0.1c0.2,0,0.5,0,0.7,0.1c0.2,0.1,0.4,0.2,0.5,0.4c0.1,0.2,0.2,0.3,0.2,0.5
				s0,0.5,0,1V23.5z M63,22c0-0.2,0-0.4,0-0.4c0-0.1-0.1-0.1-0.1-0.1c-0.1,0-0.1,0-0.1,0.1s0,0.2,0,0.4v2.2c0,0.3,0,0.4,0,0.5
				c0,0.1,0.1,0.1,0.2,0.1c0.1,0,0.1,0,0.2-0.1c0-0.1,0-0.2,0-0.5L63,22z"/>
			<path fill="#203A70" d="M67.9,20.8v3.1c0,0.3,0,0.6,0,0.7c0,0.1-0.1,0.3-0.2,0.4c-0.1,0.1-0.3,0.3-0.4,0.3
				c-0.2,0.1-0.4,0.1-0.6,0.1c-0.3,0-0.5,0-0.7-0.1c-0.2-0.1-0.4-0.2-0.5-0.4c-0.1-0.1-0.2-0.3-0.2-0.5c0-0.2,0-0.5,0-1v-2.7h1.2
				v3.5c0,0.2,0,0.3,0,0.4c0,0.1,0.1,0.1,0.1,0.1c0.1,0,0.1,0,0.1-0.1c0-0.1,0-0.2,0-0.4v-3.4L67.9,20.8L67.9,20.8z"/>
			<path fill="#203A70" d="M69.6,24.5v0.4c0,0.2,0,0.4-0.1,0.5c-0.1,0.1-0.1,0.3-0.3,0.4C69.1,25.9,69,26,68.8,26v-0.3
				c0.1-0.1,0.2-0.1,0.2-0.3h-0.2v-0.9H69.6z"/>
			<path fill="#203A70" d="M74.9,22.8h-1.2V22c0-0.2,0-0.4,0-0.4c0-0.1-0.1-0.1-0.2-0.1c-0.1,0-0.2,0-0.2,0.1c0,0.1,0,0.2,0,0.5v2.1
				c0,0.2,0,0.4,0,0.4c0,0.1,0.1,0.1,0.2,0.1c0.1,0,0.1,0,0.2-0.1c0-0.1,0-0.2,0-0.5v-0.6h1.2v0.2c0,0.5,0,0.8-0.1,1
				c-0.1,0.2-0.2,0.4-0.4,0.5c-0.2,0.1-0.5,0.2-0.9,0.2c-0.4,0-0.6-0.1-0.9-0.2c-0.2-0.1-0.4-0.3-0.5-0.5c-0.1-0.2-0.1-0.6-0.1-1
				v-1.3c0-0.3,0-0.6,0-0.7c0-0.2,0.1-0.3,0.2-0.5c0.1-0.2,0.3-0.3,0.5-0.4c0.2-0.1,0.4-0.1,0.7-0.1c0.4,0,0.6,0.1,0.9,0.2
				c0.2,0.1,0.4,0.3,0.5,0.5c0.1,0.2,0.1,0.5,0.1,1L74.9,22.8L74.9,22.8z"/>
			<path fill="#203A70" d="M78.7,20.8v4.6h-1.2v-1.9h-0.4v1.9H76v-4.6h1.2v1.6h0.4v-1.6H78.7z"/>
			<path fill="#203A70" d="M79.8,20.8h2v0.9H81v0.9h0.8v0.9H81v1h0.9v0.9h-2.1V20.8z"/>
			<path fill="#203A70" d="M85.5,22.5h-1.2v-0.4c0-0.3,0-0.4,0-0.5c0-0.1-0.1-0.1-0.2-0.1c-0.1,0-0.1,0-0.2,0.1c0,0.1,0,0.2,0,0.4
				v2.2c0,0.2,0,0.3,0,0.4c0,0.1,0.1,0.1,0.2,0.1c0.1,0,0.1,0,0.2-0.1c0-0.1,0-0.2,0-0.4v-0.5h-0.2v-0.7h1.4v2.5h-0.8l-0.1-0.3
				c-0.1,0.1-0.2,0.2-0.3,0.3c-0.1,0.1-0.3,0.1-0.4,0.1c-0.2,0-0.4,0-0.6-0.1c-0.2-0.1-0.3-0.2-0.4-0.4c-0.1-0.1-0.1-0.3-0.2-0.5
				c0-0.2,0-0.4,0-0.7v-1.4c0-0.4,0-0.8,0.1-1c0-0.2,0.2-0.4,0.4-0.5c0.2-0.2,0.5-0.2,0.9-0.2c0.4,0,0.6,0.1,0.9,0.2
				c0.2,0.1,0.4,0.3,0.5,0.5s0.1,0.5,0.1,0.9L85.5,22.5L85.5,22.5z"/>
			<path fill="#203A70" d="M89.3,23.5c0,0.5,0,0.8,0,1c0,0.2-0.1,0.4-0.2,0.5c-0.1,0.2-0.3,0.3-0.5,0.4c-0.2,0.1-0.4,0.1-0.7,0.1
				c-0.2,0-0.5,0-0.7-0.1c-0.2-0.1-0.4-0.2-0.5-0.4c-0.1-0.2-0.2-0.3-0.2-0.5c0-0.2,0-0.5,0-1v-0.8c0-0.5,0-0.8,0-1
				c0-0.2,0.1-0.4,0.2-0.5c0.1-0.2,0.3-0.3,0.5-0.4c0.2-0.1,0.4-0.1,0.7-0.1c0.2,0,0.5,0,0.7,0.1c0.2,0.1,0.4,0.2,0.5,0.4
				c0.1,0.2,0.2,0.3,0.2,0.5c0,0.2,0,0.5,0,1V23.5z M88.1,22c0-0.2,0-0.4,0-0.4c0-0.1-0.1-0.1-0.1-0.1c-0.1,0-0.1,0-0.1,0.1
				s0,0.2,0,0.4v2.2c0,0.3,0,0.4,0,0.5c0,0.1,0.1,0.1,0.2,0.1c0.1,0,0.1,0,0.2-0.1c0-0.1,0-0.2,0-0.5V22z"/>
			<path fill="#203A70" d="M93.1,20.8v3.1c0,0.3,0,0.6,0,0.7c0,0.1-0.1,0.3-0.2,0.4c-0.1,0.1-0.3,0.3-0.4,0.3
				c-0.2,0.1-0.4,0.1-0.6,0.1c-0.3,0-0.5,0-0.7-0.1c-0.2-0.1-0.4-0.2-0.5-0.4c-0.1-0.1-0.2-0.3-0.2-0.5c0-0.2,0-0.5,0-1v-2.7h1.2
				v3.5c0,0.2,0,0.3,0,0.4c0,0.1,0.1,0.1,0.1,0.1c0.1,0,0.1,0,0.1-0.1c0-0.1,0-0.2,0-0.4v-3.4L93.1,20.8L93.1,20.8z"/>
			<path fill="#203A70" d="M94.9,24.5v0.9H94v-0.9H94.9z"/>
		</g>
	</g>
	<path fill="#1E3B6F" d="M19.2,11.2c0,0,2.1-10.6-8-10.8C2,0.3,0.2,9.7,0.2,9.7s-1.7,9.5,7,9.9C17.1,20,19.2,11.2,19.2,11.2z"/>
	<path fill="#F9E404" d="M19.1,10.8c0,0,2.1-10.6-8-10.8c-9.2-0.2-11,9.2-11,9.2s-1.7,9.5,7,9.9C17,19.6,19.1,10.8,19.1,10.8z"/>
	<path fill="#203A70" d="M16.2,10.4c0,0,1-4.2-0.8-5.9c-3.6-3-8.4-0.3-9,0.3c-0.7,0.6-5.2,5-2.8,8.8c5.3,6,11.7-0.5,11.9-1.7
		c-0.8,0-3.6,0-3.6,0s-2.3,2.5-4.5,0.5c-0.7-0.7-0.5-2-0.5-2L16.2,10.4L16.2,10.4z M11.1,5.9c1.7,0,1.5,2.4,1.5,2.4H7.5
		C7.5,8.2,8.1,5.9,11.1,5.9z"/>
</g>
</svg>
