<?xml version="1.0" encoding="utf-8"?>
<!-- Generator: Adobe Illustrator 18.0.0, SVG Export Plug-In . SVG Version: 6.00 Build 0)  -->
<!DOCTYPE svg PUBLIC "-//W3C//DTD SVG 1.0//EN" "http://www.w3.org/TR/2001/REC-SVG-20010904/DTD/svg10.dtd">
<svg version="1.0" id="Camada_1" xmlns="http://www.w3.org/2000/svg" xmlns:xlink="http://www.w3.org/1999/xlink" x="0px" y="0px"
	 width="58px" height="56px" viewBox="0 0 58 56" enable-background="new 0 0 58 56" xml:space="preserve">
<g>
	<path fill="#4664AC" d="M42.5,56H15.5C7,56,0,49,0,40.5V15.5C0,7,7,0,15.5,0l27.1,0C51,0,58,7,58,15.5v25.1C58,49,51,56,42.5,56z"
		/>
	<path fill="#FFFFFF" d="M35.9,29h-4.5v16.2h-6.7V29h-3.2v-5.7h3.2v-3.7c0-2.6,1.2-6.8,6.7-6.8l4.9,0v5.5h-3.6
		c-0.6,0-1.4,0.3-1.4,1.6v3.4h5.1L35.9,29z"/>
</g>
</svg>
