<?xml version="1.0" encoding="utf-8"?>
<!-- Generator: Adobe Illustrator 15.0.0, SVG Export Plug-In . SVG Version: 6.00 Build 0)  -->
<!DOCTYPE svg PUBLIC "-//W3C//DTD SVG 1.1//EN" "http://www.w3.org/Graphics/SVG/1.1/DTD/svg11.dtd">
<svg version="1.1" id="Layer_1" xmlns="http://www.w3.org/2000/svg" xmlns:xlink="http://www.w3.org/1999/xlink" x="0px" y="0px"
	 width="20px" height="26px" viewBox="0 0 20 26" enable-background="new 0 0 20 26" xml:space="preserve">
<g>
	<path fill="#FF4A4A" d="M19.419,13c0,5.202-4.217,9.419-9.419,9.419S0.582,18.203,0.582,13S4.798,3.582,10,3.582
		S19.419,7.798,19.419,13"/>
	<g>
		<path fill="#FFFFFF" d="M9.478,16.535c0.431,0.088,0.768,0.314,1.011,0.682c0.242,0.366,0.32,0.769,0.231,1.205
			c-0.088,0.431-0.315,0.767-0.682,1.01c-0.367,0.242-0.766,0.321-1.196,0.234c-0.431-0.088-0.768-0.315-1.01-0.682
			c-0.243-0.367-0.321-0.766-0.233-1.197c0.087-0.43,0.313-0.768,0.678-1.015S9.042,16.446,9.478,16.535z M9.96,15.198l-0.424-0.086
			c0.104-0.741,0.136-1.657,0.097-2.748l-0.074-2.202C9.512,8.841,9.545,7.91,9.657,7.363C9.757,6.869,9.985,6.5,10.342,6.259
			c0.356-0.242,0.772-0.315,1.248-0.219c0.463,0.094,0.814,0.324,1.058,0.691s0.317,0.785,0.222,1.254
			c-0.099,0.488-0.445,1.367-1.037,2.638l-0.938,1.996C10.564,13.329,10.252,14.188,9.96,15.198z"/>
	</g>
</g>
</svg>
