<?xml version="1.0" encoding="utf-8"?>
<!-- Generator: Adobe Illustrator 18.0.0, SVG Export Plug-In . SVG Version: 6.00 Build 0)  -->
<!DOCTYPE svg PUBLIC "-//W3C//DTD SVG 1.0//EN" "http://www.w3.org/TR/2001/REC-SVG-20010904/DTD/svg10.dtd">
<svg version="1.0" id="Camada_1" xmlns="http://www.w3.org/2000/svg" xmlns:xlink="http://www.w3.org/1999/xlink" x="0px" y="0px"
	 width="64px" height="61px" viewBox="0 0 64 61" enable-background="new 0 0 64 61" xml:space="preserve">
<path fill="#FF4A4A" d="M7.7,60.8L24,45.9c3.9,2.7,8.5,4.5,13.5,4.7c14,0.7,25.8-10.1,26.4-24.1S53.9,0.7,39.9,0
	C26.1-0.6,14.1,10.1,13.4,24.1c-0.2,5,1.1,9.8,3.4,13.9L0.5,53c-0.7,0.6-0.7,1.2-0.1,1.9l5.4,5.9C6.4,61.1,7.3,61.1,7.7,60.8
	 M39.5,8.1c9.4,0.4,16.8,8.6,16.4,18c-0.4,9.4-8.6,16.8-18,16.4c-9.4-0.4-16.8-8.6-16.4-18C22,14.8,30.1,7.7,39.5,8.1"/>
</svg>
