<?xml version="1.0" encoding="utf-8"?>
<svg version="1.0" id="Camada_1" xmlns="http://www.w3.org/2000/svg" xmlns:xlink="http://www.w3.org/1999/xlink" x="0px" y="0px" width="32px" height="37px" viewBox="0 0 32 37" enable-background="new 0 0 32 37" xml:space="preserve">
<g>
	<rect y="5.2" fill="#FF6161" width="32" height="31.8"/>
	<g>
		<path fill="#A53964" d="M31.7,5.2h-8c-1.1-3-4-5.2-7.4-5.2S9.9,2.2,8.8,5.2H0.3c8.5,3.8-0.2,7.7-0.2,7.7h8.5c1-3.3,4-5.7,7.6-5.7
			s6.7,2.4,7.6,5.7h7.8C23.7,8,31.7,5.2,31.7,5.2z M10.7,5.2c1-2,3.1-3.4,5.5-3.4s4.5,1.4,5.5,3.4H10.7z"/>
		<path fill="#A53964" d="M16.2,8.9c-2.6,0-4.9,1.6-5.7,3.9H22C21.1,10.5,18.9,8.9,16.2,8.9z"/>
	</g>
</g>
</svg>
