<?xml version="1.0" encoding="utf-8"?>
<!-- Generator: Adobe Illustrator 17.1.0, SVG Export Plug-In . SVG Version: 6.00 Build 0)  -->
<!DOCTYPE svg PUBLIC "-//W3C//DTD SVG 1.1//EN" "http://www.w3.org/Graphics/SVG/1.1/DTD/svg11.dtd">
<svg version="1.1" id="Capa_1" xmlns="http://www.w3.org/2000/svg" xmlns:xlink="http://www.w3.org/1999/xlink" x="0px" y="0px"
	 viewBox="395.9 272.6 50 50" enable-background="new 395.9 272.6 50 50" xml:space="preserve">
<path fill="#8FB017" d="M420.9,272.7c-13.8,0-24.9,11.1-24.9,24.9c0,13.8,11.1,24.9,24.9,24.9c13.8,0,24.9-11.1,24.9-24.9
	C445.8,283.9,434.7,272.7,420.9,272.7z M432.9,299.6L418,309.9c-0.4,0.3-0.9,0.4-1.4,0.4c-0.4,0-0.8-0.1-1.1-0.3
	c-0.8-0.4-1.3-1.2-1.3-2.1v-20.4c0-0.9,0.5-1.7,1.3-2.1c0.8-0.4,1.8-0.4,2.5,0.2l14.9,10.2c0.7,0.5,1.1,1.2,1.1,2
	S433.5,299.2,432.9,299.6z"/>
</svg>
