<?xml version="1.0" encoding="utf-8"?>
<!-- Generator: Adobe Illustrator 18.0.0, SVG Export Plug-In . SVG Version: 6.00 Build 0)  -->
<!DOCTYPE svg PUBLIC "-//W3C//DTD SVG 1.0//EN" "http://www.w3.org/TR/2001/REC-SVG-20010904/DTD/svg10.dtd">
<svg version="1.0" id="Camada_1" xmlns="http://www.w3.org/2000/svg" xmlns:xlink="http://www.w3.org/1999/xlink" x="0px" y="0px"
	 width="25px" height="25px" viewBox="0 0 25 25" enable-background="new 0 0 25 25" xml:space="preserve">
<g>
	<path fill-rule="evenodd" clip-rule="evenodd" fill="#2E3191" d="M4.6,0l15.9,0C23,0,25,2.1,25,4.6v15.9c0,2.5-2.1,4.5-4.6,4.5
		L4.5,25C2,25,0,22.9,0,20.4L0,4.5C0,2,2.1,0,4.6,0L4.6,0z"/>
	<path fill-rule="evenodd" clip-rule="evenodd" fill="#FFF100" d="M21.5,11.4h-1.8l-0.7,1.4h1.3L21.5,11.4L21.5,11.4z M22.7,13.7
		h-1.8v3.8c0,1.2-0.8,1.5-1.4,1.5c-0.6,0-1.2-0.2-1.1-1.2v-4.1h-1.8l0,4.3c0,1.7,1,2.4,2.3,2.4c0.9,0,1.6-0.4,2-1.1h0v0.9h1.7V13.7
		L22.7,13.7z"/>
	<path fill-rule="evenodd" clip-rule="evenodd" fill="#FFF100" d="M15.3,15.5c0-1.6-1.7-1.9-2.7-1.9c-1.4,0-2.8,0.3-3,2.3h1.7
		c0.1-0.4,0.2-0.9,1.1-0.9c0.5,0,1.2,0,1.2,0.8c0,0.4-0.3,0.5-0.6,0.5l-1.6,0.2c-1.1,0.2-2,0.8-2,2.1c0,1.4,1,1.9,2,1.9
		c1.2,0,1.8-0.6,2.2-1c0,0.4,0.1,0.5,0.2,0.8l1.5,0c0-0.7,0-1.3,0-1.3V15.5L15.3,15.5z"/>
	<path fill-rule="evenodd" clip-rule="evenodd" fill="#FFF100" d="M7.7,11.4H6v2.3H5.1v1.2H6v4c0,0.8,0.3,1.4,1.8,1.4H8
		c0.3,0,0.6,0,0.8,0V19c-0.1,0-0.3,0-0.4,0c-0.7,0-0.7-0.1-0.7-0.5l0-3.6h1.1v-1.2H7.7V11.4L7.7,11.4z"/>
	<polygon fill-rule="evenodd" clip-rule="evenodd" fill="#FFF100" points="4.2,11.4 2.3,11.4 2.3,20.3 4.2,20.3 4.2,11.4 	"/>
	<path fill-rule="evenodd" clip-rule="evenodd" fill="#2E3191" d="M13.5,17.9v-0.8c-0.2,0.1-0.5,0.3-1.2,0.4c-0.7,0.1-1.2,0.3-1.2,1
		c0,0.6,0.5,0.8,0.8,0.8C12.7,19.2,13.5,18.7,13.5,17.9L13.5,17.9z"/>
</g>
</svg>
