<?xml version="1.0" encoding="utf-8"?>
<!-- Generator: Adobe Illustrator 18.0.0, SVG Export Plug-In . SVG Version: 6.00 Build 0)  -->
<!DOCTYPE svg PUBLIC "-//W3C//DTD SVG 1.0//EN" "http://www.w3.org/TR/2001/REC-SVG-20010904/DTD/svg10.dtd">
<svg version="1.0" id="Camada_1" xmlns="http://www.w3.org/2000/svg" xmlns:xlink="http://www.w3.org/1999/xlink" x="0px" y="0px"
	 width="196px" height="28px" viewBox="0 0 196 28" enable-background="new 0 0 196 28" xml:space="preserve">
<g>
	<path fill="#FF4A4A" d="M5.7,16.3c0,0.1,0,0.3,0,0.5c0,0.2,0,0.4,0,0.6c0,0.2,0,0.4,0,0.7c0,0.2,0,0.4,0,0.6l1.8-0.1v2.1H0.2v-1.8
		c0.4,0,0.7-0.1,0.9-0.2c0.2-0.1,0.4-0.3,0.5-0.5c0.1-0.2,0.2-0.5,0.2-0.8c0-0.3,0-0.6,0-1V5.4c0-0.3,0-0.7,0-1.1
		c0-0.4,0-0.8,0.1-1.2L0,3.1V1C0.6,1,1.2,1,1.7,1c0.5-0.1,0.9-0.1,1.2-0.2c0.3-0.1,0.6-0.2,0.8-0.3c0.2-0.1,0.4-0.2,0.5-0.3h1.5
		V16.3z"/>
	<path fill="#FF4A4A" d="M14.6,16.3c0,0.1,0,0.3,0,0.5c0,0.2,0,0.4,0,0.6c0,0.2,0,0.4,0,0.7c0,0.2,0,0.4,0,0.6l1.8-0.1v2.1H9.1v-1.8
		c0.4,0,0.7-0.1,0.9-0.2c0.2-0.1,0.4-0.3,0.5-0.5c0.1-0.2,0.2-0.5,0.2-0.8c0-0.3,0-0.6,0-1V12c0-0.3,0-0.7,0-1.1
		c0-0.4,0-0.8,0.1-1.2L8.9,9.7v-2c0.6,0,1.2,0,1.7-0.1c0.5-0.1,0.9-0.1,1.2-0.2c0.3-0.1,0.6-0.2,0.8-0.3C12.9,7,13,6.9,13.1,6.9h1.5
		V16.3z M15,2.2c0,0.3,0,0.6-0.1,0.9s-0.2,0.5-0.4,0.7C14.3,4,14,4.2,13.8,4.3c-0.3,0.1-0.5,0.2-0.8,0.2c-0.3,0-0.6-0.1-0.9-0.2
		c-0.3-0.1-0.5-0.3-0.7-0.5c-0.2-0.2-0.3-0.4-0.4-0.7s-0.2-0.6-0.2-0.9c0-0.3,0.1-0.6,0.2-0.9c0.1-0.3,0.3-0.5,0.5-0.7
		c0.2-0.2,0.4-0.4,0.7-0.5C12.4,0.1,12.6,0,12.9,0c0.3,0,0.6,0.1,0.8,0.2s0.5,0.3,0.7,0.5c0.2,0.2,0.3,0.4,0.4,0.7
		C14.9,1.6,15,1.9,15,2.2z"/>
	<path fill="#FF4A4A" d="M32.1,16.3c0,0.1,0,0.3,0,0.5c0,0.2,0,0.4,0,0.6c0,0.2,0,0.4,0,0.7c0,0.2,0,0.4,0,0.6l1.8-0.1v2.1h-7.1
		v-1.8c0.4,0,0.7-0.1,0.9-0.2c0.2-0.1,0.4-0.3,0.5-0.5c0.1-0.2,0.2-0.5,0.2-0.8c0-0.3,0-0.6,0-1l0-3.9c0-1.2-0.2-2.1-0.5-2.6
		S26.7,9.2,26,9.2c-0.5,0-0.9,0.1-1.4,0.3c-0.4,0.2-0.8,0.4-1.1,0.7v6.1c0,0.1,0,0.3,0,0.5c0,0.2,0,0.4,0,0.6c0,0.2,0,0.4,0,0.7
		c0,0.2,0,0.4,0,0.6l1.8-0.1v2.1H18v-1.8c0.4,0,0.7-0.1,0.9-0.2s0.4-0.3,0.5-0.5c0.1-0.2,0.2-0.5,0.2-0.8c0-0.3,0-0.6,0-1v-4.6
		c0-0.3,0-0.7,0-1.1c0-0.4,0-0.8,0.1-1.2l-1.9,0.1v-2c0.6,0,1.2,0,1.7-0.1c0.5-0.1,0.9-0.1,1.2-0.2c0.3-0.1,0.6-0.2,0.8-0.3
		C21.8,7,21.9,6.9,22,6.9h1.3l0.1,1.3h0c0.3-0.2,0.6-0.4,0.9-0.6s0.7-0.3,1.1-0.5c0.4-0.1,0.7-0.2,1.1-0.3c0.3-0.1,0.6-0.1,0.9-0.1
		c0.8,0,1.5,0.1,2.1,0.4c0.6,0.2,1.1,0.6,1.4,1.1c0.4,0.5,0.6,1.1,0.8,1.9c0.2,0.8,0.3,1.7,0.3,2.7V16.3z"/>
	<path fill="#FF4A4A" d="M48.5,7.6c-0.1,0-0.3,0-0.4-0.1c-0.1-0.1-0.3-0.1-0.4-0.2c-0.1-0.1-0.2-0.2-0.3-0.3
		c-0.1-0.1-0.1-0.3-0.2-0.4c-0.1,0-0.2,0.1-0.4,0.2c-0.1,0.1-0.2,0.3-0.3,0.5s-0.2,0.4-0.3,0.5c-0.1,0.2-0.1,0.4-0.2,0.5
		c0.5,0.4,0.9,1,1.2,1.6c0.3,0.6,0.4,1.2,0.4,1.9c0,0.8-0.2,1.5-0.5,2.2c-0.3,0.7-0.8,1.2-1.4,1.7c-0.6,0.5-1.2,0.8-2,1.1
		c-0.7,0.3-1.5,0.4-2.3,0.4c-0.2,0-0.5,0-0.8,0c-0.3,0-0.6,0-0.8,0c-0.4,0-0.7,0.1-1,0.2c-0.3,0.1-0.4,0.3-0.4,0.6
		c0,0.2,0.1,0.3,0.2,0.4c0.1,0.1,0.3,0.2,0.6,0.3c0.3,0.1,0.6,0.1,1.1,0.2c0.4,0,1,0.1,1.6,0.1c1,0.1,2,0.2,2.9,0.3
		c0.9,0.2,1.6,0.4,2.2,0.7c0.6,0.3,1.1,0.8,1.4,1.3c0.3,0.5,0.5,1.2,0.5,2c0,0.5-0.1,1-0.3,1.4c-0.2,0.4-0.5,0.8-0.9,1.2
		c-0.4,0.4-0.8,0.7-1.3,0.9c-0.5,0.3-1,0.5-1.6,0.7c-0.6,0.2-1.2,0.3-1.8,0.4C42.4,28,41.8,28,41.2,28c-1.2,0-2.2-0.1-3-0.3
		c-0.8-0.2-1.4-0.5-1.9-0.8c-0.5-0.3-0.8-0.7-1-1.1S35,24.9,35,24.5c0-0.3,0-0.6,0.1-0.9c0.1-0.3,0.2-0.6,0.4-0.8
		c0.2-0.3,0.5-0.5,0.8-0.8c0.3-0.2,0.7-0.5,1.2-0.6c-0.4-0.1-0.7-0.2-0.9-0.4c-0.3-0.2-0.5-0.4-0.6-0.6c-0.2-0.2-0.3-0.4-0.3-0.7
		c-0.1-0.2-0.1-0.5-0.1-0.7c0-0.2,0-0.5,0.1-0.8c0.1-0.3,0.2-0.5,0.4-0.8c0.2-0.3,0.5-0.5,0.8-0.8c0.3-0.2,0.8-0.4,1.3-0.6v0
		c-0.4-0.1-0.8-0.3-1.1-0.6c-0.3-0.2-0.6-0.5-0.8-0.9c-0.2-0.3-0.4-0.7-0.6-1.1c-0.1-0.4-0.2-0.9-0.2-1.3c0-0.8,0.2-1.5,0.5-2.2
		c0.3-0.7,0.8-1.2,1.4-1.7c0.6-0.5,1.2-0.8,1.9-1.1c0.7-0.3,1.5-0.4,2.2-0.4c0.2,0,0.5,0,0.8,0c0.3,0,0.6,0.1,0.9,0.1
		c0.3,0.1,0.6,0.2,0.9,0.3s0.5,0.2,0.8,0.4c0.2-0.4,0.3-0.8,0.5-1.2c0.2-0.4,0.5-0.7,0.8-1.1c0.3-0.3,0.6-0.6,1-0.7s0.8-0.3,1.2-0.3
		c0.6,0,1.1,0.2,1.4,0.5C50,5,50.2,5.5,50.2,6c0,0.2,0,0.3-0.1,0.5S50,6.9,49.9,7.1c-0.1,0.2-0.3,0.3-0.5,0.4
		C49.1,7.6,48.8,7.6,48.5,7.6z M42,22.2c-0.2,0-0.4,0-0.7,0c-0.2,0-0.5,0-0.7,0c-0.2,0-0.5,0-0.7-0.1c-0.2,0-0.5-0.1-0.7-0.1
		c-0.3,0.2-0.5,0.5-0.7,0.9c-0.1,0.4-0.2,0.7-0.2,1c0,0.4,0.1,0.7,0.3,1c0.2,0.3,0.4,0.5,0.7,0.7c0.3,0.2,0.7,0.4,1.2,0.5
		c0.4,0.1,1,0.2,1.5,0.2c0.6,0,1.2-0.1,1.7-0.2c0.5-0.1,0.9-0.3,1.2-0.5s0.6-0.4,0.8-0.7c0.2-0.3,0.3-0.5,0.3-0.8c0-0.6-0.3-1-1-1.3
		C44.3,22.4,43.3,22.2,42,22.2z M41.6,8.5c-0.4,0-0.7,0.1-1,0.3c-0.3,0.2-0.5,0.4-0.7,0.7c-0.2,0.3-0.4,0.6-0.5,1
		c-0.1,0.4-0.2,0.8-0.2,1.2c0,0.5,0.1,0.9,0.2,1.4c0.1,0.4,0.3,0.8,0.4,1.2c0.2,0.3,0.4,0.6,0.7,0.8c0.3,0.2,0.6,0.3,1,0.3
		c0.4,0,0.7-0.1,1-0.3c0.3-0.2,0.5-0.4,0.7-0.7c0.2-0.3,0.3-0.6,0.4-1c0.1-0.4,0.1-0.7,0.1-1.1c0-0.5,0-0.9-0.1-1.4
		c-0.1-0.5-0.2-0.9-0.4-1.2c-0.2-0.4-0.4-0.6-0.7-0.9C42.3,8.6,42,8.5,41.6,8.5z"/>
	<path fill="#FF4A4A" d="M63,13.4L54,13.5c0,0.7,0.1,1.4,0.2,2.1c0.1,0.6,0.4,1.2,0.7,1.6c0.3,0.5,0.7,0.8,1.2,1.1
		c0.5,0.3,1.1,0.4,1.8,0.4c0.3,0,0.6,0,0.9-0.1c0.3-0.1,0.7-0.2,1-0.3c0.4-0.2,0.7-0.4,1.1-0.6c0.4-0.3,0.7-0.6,1-1l1.2,1.2
		c-0.5,0.7-1,1.3-1.6,1.7c-0.6,0.4-1.1,0.8-1.7,1c-0.6,0.2-1.1,0.4-1.6,0.5c-0.5,0.1-1,0.1-1.5,0.1c-1,0-1.9-0.2-2.7-0.5
		c-0.8-0.3-1.5-0.8-2.1-1.4c-0.6-0.6-1.1-1.4-1.4-2.3C50.2,16,50,15,50,13.9c0-1,0.2-1.9,0.5-2.7c0.3-0.9,0.8-1.6,1.4-2.3
		c0.6-0.7,1.3-1.2,2.1-1.6c0.8-0.4,1.8-0.6,2.8-0.6c0.5,0,1,0,1.5,0.1c0.5,0.1,1,0.2,1.4,0.4c0.5,0.2,0.9,0.5,1.3,0.8
		c0.4,0.3,0.7,0.7,1,1.2s0.5,1.1,0.7,1.7C62.9,11.7,63,12.5,63,13.4z M57,8.6c-0.4,0-0.8,0.1-1.1,0.2c-0.3,0.2-0.6,0.4-0.8,0.6
		c-0.2,0.3-0.4,0.6-0.6,1c-0.1,0.4-0.3,0.8-0.3,1.2h5c0-0.6-0.1-1-0.2-1.4c-0.1-0.4-0.3-0.7-0.5-0.9c-0.2-0.2-0.4-0.4-0.7-0.5
		C57.6,8.6,57.3,8.6,57,8.6z"/>
	<path fill="#FF4A4A" d="M74.4,6.7c0.3,0,0.6,0,0.9,0.1s0.5,0.2,0.8,0.4c0.2,0.2,0.4,0.4,0.5,0.7c0.1,0.3,0.2,0.6,0.2,1
		c0,0.2,0,0.4-0.1,0.7c-0.1,0.2-0.2,0.4-0.3,0.6c-0.2,0.2-0.3,0.3-0.6,0.5c-0.2,0.1-0.5,0.2-0.9,0.2c-0.2,0-0.4,0-0.6-0.1
		c-0.2,0-0.4-0.1-0.5-0.3c-0.2-0.1-0.3-0.3-0.4-0.5c-0.1-0.2-0.2-0.5-0.2-0.8c-0.3,0-0.6,0.1-0.8,0.3c-0.3,0.2-0.5,0.4-0.8,0.7
		c-0.2,0.3-0.5,0.6-0.6,0.9c-0.2,0.3-0.3,0.6-0.4,0.8v4.4c0,0.1,0,0.3,0,0.5c0,0.2,0,0.4,0,0.6c0,0.2,0,0.4,0,0.7c0,0.2,0,0.4,0,0.6
		l1.8-0.1v2.1H65v-1.8c0.4,0,0.7-0.1,0.9-0.2s0.4-0.3,0.5-0.5c0.1-0.2,0.2-0.5,0.2-0.8c0-0.3,0-0.6,0-1v-4.6c0-0.3,0-0.7,0-1.1
		c0-0.4,0-0.8,0.1-1.2l-1.9,0.1v-2c0.6,0,1.2,0,1.7-0.1c0.5-0.1,0.9-0.1,1.2-0.2c0.3-0.1,0.6-0.2,0.8-0.3C68.7,7,68.9,6.9,69,6.9
		h1.3l0.1,2.3h0c0.2-0.2,0.4-0.5,0.6-0.8c0.3-0.3,0.5-0.6,0.9-0.8c0.3-0.3,0.7-0.5,1.1-0.6C73.5,6.8,73.9,6.7,74.4,6.7z"/>
	<path fill="#FF4A4A" d="M83.5,16.3c0,0.1,0,0.3,0,0.5c0,0.2,0,0.4,0,0.6c0,0.2,0,0.4,0,0.7c0,0.2,0,0.4,0,0.6l1.8-0.1v2.1H78v-1.8
		c0.4,0,0.7-0.1,0.9-0.2s0.4-0.3,0.5-0.5c0.1-0.2,0.2-0.5,0.2-0.8c0-0.3,0-0.6,0-1V12c0-0.3,0-0.7,0-1.1c0-0.4,0-0.8,0.1-1.2
		l-1.9,0.1v-2c0.6,0,1.2,0,1.7-0.1c0.5-0.1,0.9-0.1,1.2-0.2c0.3-0.1,0.6-0.2,0.8-0.3C81.8,7,82,6.9,82.1,6.9h1.5V16.3z M83.9,2.2
		c0,0.3,0,0.6-0.1,0.9s-0.2,0.5-0.4,0.7C83.2,4,83,4.2,82.7,4.3c-0.3,0.1-0.5,0.2-0.8,0.2c-0.3,0-0.6-0.1-0.9-0.2
		c-0.3-0.1-0.5-0.3-0.7-0.5c-0.2-0.2-0.3-0.4-0.4-0.7c-0.1-0.3-0.2-0.6-0.2-0.9c0-0.3,0.1-0.6,0.2-0.9c0.1-0.3,0.3-0.5,0.5-0.7
		s0.4-0.4,0.7-0.5C81.3,0.1,81.6,0,81.9,0c0.3,0,0.6,0.1,0.8,0.2s0.5,0.3,0.7,0.5c0.2,0.2,0.3,0.4,0.4,0.7
		C83.9,1.6,83.9,1.9,83.9,2.2z"/>
	<path fill="#FF4A4A" d="M99.6,13.4l-8.9,0.2c0,0.7,0.1,1.4,0.2,2.1c0.1,0.6,0.4,1.2,0.7,1.6c0.3,0.5,0.7,0.8,1.2,1.1
		c0.5,0.3,1.1,0.4,1.8,0.4c0.3,0,0.6,0,0.9-0.1c0.3-0.1,0.7-0.2,1-0.3c0.4-0.2,0.7-0.4,1.1-0.6c0.4-0.3,0.7-0.6,1-1l1.2,1.2
		c-0.5,0.7-1,1.3-1.6,1.7c-0.6,0.4-1.1,0.8-1.7,1c-0.6,0.2-1.1,0.4-1.6,0.5c-0.5,0.1-1,0.1-1.5,0.1c-1,0-1.9-0.2-2.7-0.5
		c-0.8-0.3-1.5-0.8-2.1-1.4c-0.6-0.6-1.1-1.4-1.4-2.3c-0.3-0.9-0.5-1.9-0.5-3c0-1,0.2-1.9,0.5-2.7c0.3-0.9,0.8-1.6,1.4-2.3
		c0.6-0.7,1.3-1.2,2.1-1.6c0.8-0.4,1.8-0.6,2.8-0.6c0.5,0,1,0,1.5,0.1c0.5,0.1,1,0.2,1.4,0.4c0.5,0.2,0.9,0.5,1.3,0.8
		c0.4,0.3,0.7,0.7,1,1.2s0.5,1.1,0.7,1.7C99.6,11.7,99.7,12.5,99.6,13.4z M93.6,8.6c-0.4,0-0.8,0.1-1.1,0.2C92.2,9,92,9.2,91.7,9.4
		c-0.2,0.3-0.4,0.6-0.6,1c-0.1,0.4-0.3,0.8-0.3,1.2h5c0-0.6-0.1-1-0.2-1.4s-0.3-0.7-0.5-0.9C95,9,94.8,8.8,94.5,8.7
		C94.2,8.6,94,8.6,93.6,8.6z"/>
	<path fill="#FF4A4A" d="M105.4,19.4c0,0.2,0,0.5-0.1,0.7c-0.1,0.2-0.2,0.4-0.4,0.6c-0.1,0.2-0.3,0.3-0.5,0.4
		c-0.2,0.1-0.4,0.1-0.6,0.1c-0.2,0-0.4,0-0.6-0.1c-0.2-0.1-0.4-0.2-0.5-0.4c-0.1-0.2-0.3-0.3-0.3-0.6c-0.1-0.2-0.1-0.4-0.1-0.7
		c0-0.2,0-0.5,0.1-0.7c0.1-0.2,0.2-0.4,0.4-0.6c0.1-0.2,0.3-0.3,0.5-0.4c0.2-0.1,0.4-0.1,0.6-0.1c0.2,0,0.4,0,0.6,0.1
		c0.2,0.1,0.4,0.2,0.5,0.4c0.1,0.2,0.3,0.3,0.3,0.6C105.4,18.9,105.4,19.1,105.4,19.4z"/>
	<path fill="#FF4A4A" d="M118.4,9.1c-0.1-0.3-0.3-0.6-0.5-0.8c-0.2-0.2-0.5-0.3-0.8-0.4c-0.3-0.1-0.6-0.2-0.8-0.2
		c-0.3,0-0.5,0-0.7,0c-0.6,0-1.2,0.1-1.7,0.4c-0.5,0.3-1,0.6-1.4,1.1c-0.4,0.5-0.7,1.1-0.9,1.8c-0.2,0.7-0.3,1.6-0.3,2.5
		c0,0.9,0.1,1.7,0.3,2.5c0.2,0.8,0.5,1.4,1,2c0.4,0.6,0.9,1,1.5,1.3c0.6,0.3,1.2,0.5,1.9,0.5c0.4,0,0.8-0.1,1.3-0.2
		c0.4-0.1,0.8-0.3,1.2-0.5c0.4-0.2,0.7-0.5,1-0.7s0.6-0.6,0.8-0.9l0.7,0.5c-0.4,0.6-0.8,1-1.2,1.4c-0.5,0.4-1,0.7-1.5,1
		c-0.5,0.3-1,0.5-1.5,0.6c-0.5,0.1-1,0.2-1.5,0.2c-0.9,0-1.8-0.2-2.6-0.5s-1.5-0.8-2.1-1.4c-0.6-0.6-1.1-1.3-1.4-2.2
		c-0.4-0.9-0.5-1.8-0.5-2.9c0-0.6,0.1-1.2,0.2-1.9c0.2-0.6,0.4-1.2,0.7-1.7c0.3-0.6,0.6-1.1,1.1-1.5c0.4-0.5,0.9-0.9,1.4-1.2
		c0.5-0.3,1.1-0.6,1.7-0.8c0.6-0.2,1.3-0.3,2-0.3c0.8,0,1.4,0.1,2.1,0.3c0.6,0.2,1.2,0.4,1.6,0.7c0.4,0.3,0.8,0.7,1,1.1
		c0.2,0.4,0.4,0.8,0.4,1.3c0,0.4-0.1,0.7-0.3,1c-0.2,0.3-0.5,0.4-0.9,0.4c-0.2,0-0.4,0-0.6-0.1c-0.2-0.1-0.3-0.2-0.4-0.3
		c-0.1-0.1-0.2-0.3-0.2-0.4c0-0.1-0.1-0.3-0.1-0.4c0-0.2,0-0.4,0.1-0.6C118.1,9.5,118.2,9.3,118.4,9.1z"/>
	<path fill="#FF4A4A" d="M129.5,6.7c1,0,1.9,0.2,2.7,0.5c0.8,0.3,1.6,0.8,2.2,1.4c0.6,0.6,1.1,1.3,1.5,2.2c0.4,0.8,0.5,1.8,0.5,2.7
		c0,1-0.2,2-0.5,2.9c-0.4,0.9-0.8,1.7-1.4,2.4c-0.6,0.7-1.3,1.2-2.2,1.6c-0.8,0.4-1.7,0.6-2.7,0.6c-1,0-1.9-0.2-2.7-0.5
		c-0.8-0.3-1.6-0.8-2.2-1.4c-0.6-0.6-1.1-1.3-1.5-2.2c-0.4-0.8-0.5-1.8-0.5-2.8c0-1.1,0.2-2.1,0.5-3c0.4-0.9,0.8-1.7,1.4-2.4
		c0.6-0.7,1.3-1.2,2.2-1.6C127.7,6.9,128.6,6.7,129.5,6.7z M129.5,7.7c-0.7,0-1.3,0.2-1.8,0.5c-0.5,0.3-0.9,0.7-1.3,1.3
		c-0.3,0.5-0.6,1.1-0.7,1.8c-0.2,0.7-0.2,1.4-0.2,2.1c0,0.8,0.1,1.7,0.3,2.4c0.2,0.8,0.4,1.5,0.8,2.1c0.4,0.6,0.8,1.1,1.3,1.5
		c0.5,0.4,1.2,0.6,1.9,0.6c0.7,0,1.3-0.2,1.8-0.5c0.5-0.3,0.9-0.7,1.2-1.3c0.3-0.5,0.5-1.1,0.7-1.8c0.1-0.7,0.2-1.4,0.2-2.1
		c0-0.8-0.1-1.6-0.2-2.4c-0.2-0.8-0.4-1.5-0.7-2.1c-0.3-0.6-0.8-1.1-1.3-1.5C130.9,7.9,130.2,7.7,129.5,7.7z"/>
	<path fill="#FF4A4A" d="M140.3,10.4c0-0.3,0-0.6,0-0.9c0-0.3,0-0.6,0.1-0.9l-1.9,0.1V7.6c0.6,0,1.1,0,1.4-0.1
		c0.4,0,0.7-0.1,0.9-0.2c0.2-0.1,0.4-0.1,0.5-0.2c0.1-0.1,0.2-0.2,0.3-0.3h0.8c0,0.2,0,0.4,0.1,0.6c0,0.2,0,0.5,0.1,0.8
		c0.3-0.2,0.6-0.4,0.9-0.6s0.6-0.4,1-0.5c0.3-0.1,0.7-0.3,1.1-0.3s0.7-0.1,1.1-0.1c0.9,0,1.7,0.2,2.3,0.5c0.6,0.3,1.1,0.8,1.4,1.3
		c0.3-0.3,0.6-0.5,1-0.7c0.4-0.2,0.7-0.4,1.1-0.6c0.4-0.2,0.8-0.3,1.2-0.4c0.4-0.1,0.8-0.1,1.2-0.1c0.8,0,1.5,0.1,2.1,0.3
		c0.6,0.2,1.1,0.6,1.4,1.1c0.4,0.5,0.7,1.1,0.8,1.9c0.2,0.8,0.3,1.7,0.2,2.8l0,5.1c0,0.4,0,0.7,0,1c0,0.3,0,0.6-0.1,0.9l1.7-0.1v1.1
		h-5.6v-0.8c0.4,0,0.7-0.1,1-0.2c0.2-0.2,0.4-0.4,0.5-0.7c0.1-0.3,0.2-0.6,0.2-1c0-0.4,0-0.9,0-1.3v-3.8c0-1.6-0.2-2.7-0.7-3.5
		c-0.5-0.8-1.3-1.2-2.4-1.2c-0.6,0-1.1,0.1-1.7,0.4c-0.6,0.3-1.1,0.6-1.5,1c0.2,0.6,0.3,1.3,0.3,2l-0.1,6.4c0,0.4,0,0.7,0,1
		s0,0.6-0.1,0.9l1.7-0.1v1.1H147v-0.8c0.4,0,0.7-0.1,1-0.2c0.2-0.2,0.4-0.4,0.5-0.7c0.1-0.3,0.1-0.6,0.2-1c0-0.4,0-0.9,0-1.3l0-3.8
		c0-1.6-0.2-2.7-0.7-3.5c-0.5-0.8-1.2-1.2-2.3-1.2c-0.6,0-1.1,0.1-1.7,0.4c-0.5,0.2-1,0.6-1.4,0.9c0,0.2,0,0.4,0,0.7
		c0,0.2,0,0.5,0,0.8v7c0,0.4,0,0.7,0,1s0,0.6-0.1,0.9l1.7-0.1v1.1h-5.6v-0.8c0.4,0,0.7-0.1,1-0.2c0.2-0.2,0.4-0.4,0.5-0.7
		c0.1-0.3,0.2-0.6,0.2-1s0-0.9,0-1.3V10.4z"/>
	<path fill="#FF4A4A" d="M166.8,19.4c0,0.2,0,0.5-0.1,0.7c-0.1,0.2-0.2,0.4-0.4,0.6c-0.1,0.2-0.3,0.3-0.5,0.4
		c-0.2,0.1-0.4,0.1-0.6,0.1s-0.4,0-0.6-0.1c-0.2-0.1-0.4-0.2-0.5-0.4c-0.1-0.2-0.3-0.3-0.3-0.6c-0.1-0.2-0.1-0.4-0.1-0.7
		c0-0.2,0-0.5,0.1-0.7c0.1-0.2,0.2-0.4,0.4-0.6c0.1-0.2,0.3-0.3,0.5-0.4c0.2-0.1,0.4-0.1,0.6-0.1c0.2,0,0.4,0,0.6,0.1
		c0.2,0.1,0.4,0.2,0.5,0.4c0.1,0.2,0.3,0.3,0.3,0.6C166.7,18.9,166.8,19.1,166.8,19.4z"/>
	<path fill="#FF4A4A" d="M170.6,3.7c0-0.3,0-0.6,0-0.8c0-0.3,0-0.6,0.1-0.9l-1.9,0.1V0.9c0.6,0,1.1,0,1.5-0.1c0.4,0,0.7-0.1,1-0.2
		c0.2-0.1,0.4-0.1,0.6-0.2c0.1-0.1,0.3-0.2,0.4-0.3h0.8v8.1c0.5-0.5,1.1-0.9,1.8-1.2s1.5-0.4,2.3-0.4c0.9,0,1.7,0.2,2.4,0.5
		c0.7,0.3,1.4,0.8,2,1.4c0.6,0.6,1,1.3,1.3,2.2c0.3,0.9,0.5,1.8,0.5,2.9c0,1.2-0.2,2.2-0.6,3.1c-0.4,0.9-0.9,1.7-1.6,2.4
		c-0.7,0.7-1.4,1.2-2.3,1.5c-0.9,0.4-1.7,0.5-2.7,0.5c-0.3,0-0.6,0-1-0.1c-0.3,0-0.7-0.1-1.1-0.3c-0.4-0.1-0.7-0.3-1-0.5
		c-0.3-0.2-0.6-0.5-0.9-0.8l-0.7,1.2h-1L170.6,3.7z M176.2,8c-0.6,0-1.2,0.1-1.8,0.4c-0.6,0.3-1.1,0.7-1.5,1.1v6.9
		c0,0.7,0.1,1.3,0.3,1.8c0.2,0.5,0.4,0.8,0.7,1.1c0.3,0.3,0.6,0.5,1,0.6c0.4,0.1,0.8,0.2,1.2,0.2c0.7,0,1.2-0.1,1.8-0.4
		c0.5-0.3,1-0.7,1.3-1.2c0.4-0.5,0.7-1.1,0.9-1.8c0.2-0.7,0.3-1.5,0.3-2.3c0-0.9-0.1-1.7-0.3-2.5c-0.2-0.8-0.4-1.4-0.8-2
		c-0.3-0.5-0.8-1-1.3-1.3C177.6,8.2,177,8,176.2,8z"/>
	<path fill="#FF4A4A" d="M193.4,8.2c-0.3,0-0.7,0.1-1.1,0.2c-0.4,0.1-0.7,0.3-1,0.6c-0.3,0.3-0.7,0.6-1,1c-0.3,0.4-0.6,0.8-0.8,1.2
		l0,6.7c0,0.4,0,0.7,0,1c0,0.3,0,0.6-0.1,0.9l1.7-0.1v1.1h-5.6v-0.8c0.4,0,0.7-0.1,1-0.2c0.2-0.2,0.4-0.4,0.5-0.7
		c0.1-0.3,0.2-0.6,0.2-1s0-0.9,0-1.3v-6.2c0-0.3,0-0.6,0-0.9c0-0.3,0-0.6,0.1-0.9l-1.9,0.1V7.6h0.8c0.4,0,0.7,0,1-0.1
		c0.3,0,0.5-0.1,0.6-0.2c0.2-0.1,0.3-0.1,0.4-0.2c0.1-0.1,0.2-0.2,0.3-0.3h0.8c0,0.3,0.1,0.6,0.1,1.1c0,0.4,0,1,0.1,1.6
		c0.2-0.3,0.5-0.7,0.8-1c0.3-0.3,0.7-0.6,1.1-0.9c0.4-0.3,0.8-0.5,1.3-0.7c0.5-0.2,0.9-0.3,1.4-0.3c0.2,0,0.5,0,0.7,0.1
		c0.2,0.1,0.4,0.2,0.6,0.3c0.2,0.1,0.3,0.3,0.4,0.5c0.1,0.2,0.2,0.5,0.2,0.8c0,0.1,0,0.3-0.1,0.4c0,0.2-0.1,0.3-0.2,0.4
		c-0.1,0.1-0.3,0.2-0.4,0.3c-0.2,0.1-0.4,0.1-0.6,0.1c-0.2,0-0.4,0-0.6-0.1c-0.2-0.1-0.3-0.2-0.4-0.3s-0.2-0.3-0.2-0.5
		C193.4,8.6,193.4,8.4,193.4,8.2z"/>
</g>
</svg>
