<?xml version="1.0" encoding="utf-8"?>
<!-- Generator: Adobe Illustrator 15.0.0, SVG Export Plug-In . SVG Version: 6.00 Build 0)  -->
<!DOCTYPE svg PUBLIC "-//W3C//DTD SVG 1.1//EN" "http://www.w3.org/Graphics/SVG/1.1/DTD/svg11.dtd">
<svg version="1.1" id="Layer_1" xmlns="http://www.w3.org/2000/svg" xmlns:xlink="http://www.w3.org/1999/xlink" x="0px" y="0px"
	 width="30.625px" height="30.75px" viewBox="0 0 30.625 30.75" enable-background="new 0 0 30.625 30.75" xml:space="preserve">
<path fill="#EF4D4E" d="M4.348,29.814l7.317-7.316c1.843,1.189,4.032,1.891,6.387,1.891c6.517,0,11.818-5.305,11.818-11.819
	c0-6.517-5.302-11.817-11.818-11.817c-6.518,0-11.818,5.301-11.818,11.817c0,2.354,0.698,4.544,1.889,6.388l-7.315,7.316
	c-0.244,0.242-0.244,0.645,0,0.887l2.653,2.654C3.705,30.059,4.103,30.059,4.348,29.814 M18.053,4.507
	c4.445,0,8.065,3.617,8.065,8.062c0,4.449-3.62,8.065-8.065,8.065c-4.447,0-8.065-3.616-8.065-8.065
	C9.988,8.124,13.605,4.507,18.053,4.507"/>
</svg>
