<?xml version="1.0" encoding="utf-8"?>
<!-- Generator: Adobe Illustrator 18.0.0, SVG Export Plug-In . SVG Version: 6.00 Build 0)  -->
<!DOCTYPE svg PUBLIC "-//W3C//DTD SVG 1.0//EN" "http://www.w3.org/TR/2001/REC-SVG-20010904/DTD/svg10.dtd">
<svg version="1.0" id="Camada_1" xmlns="http://www.w3.org/2000/svg" xmlns:xlink="http://www.w3.org/1999/xlink" x="0px" y="0px"
	 width="35px" height="20px" viewBox="0 0 35 20" enable-background="new 0 0 35 20" xml:space="preserve">
<g>
	<g>
		<g>
			<g>
				<ellipse fill="#ED1C2E" cx="10.5" cy="10" rx="10.5" ry="10"/>
				<g>
					<path fill="#FCB131" d="M24.5,0c-2.7,0-5.2,1-7,2.6c-0.4,0.3-0.8,0.7-1.1,1h2.1c0.3,0.4,0.6,0.7,0.8,1h-3.7
						c-0.2,0.4-0.4,0.7-0.6,1h5c0.2,0.4,0.3,0.7,0.5,1h-5.8c-0.1,0.4-0.2,0.7-0.3,1h6.4C21,8.5,21,9.2,21,9.9c0,1.1-0.2,2.2-0.6,3.1
						h-5.8c0.1,0.4,0.3,0.8,0.5,1h5c-0.2,0.4-0.4,0.8-0.6,1h-3.7c0.2,0.4,0.5,0.8,0.8,1h2.1c-0.3,0.4-0.7,0.8-1.1,1
						c1.8,1.6,4.3,2.6,7,2.6C30.3,20,35,15.5,35,10S30.3,0,24.5,0z"/>
				</g>
			</g>
			<path fill="#FCB131" d="M33.6,15.6c0-0.2,0.2-0.3,0.3-0.3c0.2,0,0.3,0.2,0.3,0.3c0,0.2-0.2,0.3-0.3,0.3
				C33.7,15.9,33.6,15.7,33.6,15.6z M33.9,15.8c0.1,0,0.3-0.1,0.3-0.3c0-0.1-0.1-0.3-0.3-0.3c-0.1,0-0.3,0.1-0.3,0.3
				C33.6,15.7,33.8,15.8,33.9,15.8z M33.9,15.7L33.9,15.7l-0.1-0.3h0.1H34c0,0,0,0,0,0.1C34,15.5,34,15.6,33.9,15.7L33.9,15.7
				L33.9,15.7L33.9,15.7L33.9,15.7L33.9,15.7z M33.9,15.5L33.9,15.5L33.9,15.5C34,15.5,34,15.5,33.9,15.5C34,15.5,34,15.5,33.9,15.5
				L33.9,15.5L33.9,15.5L33.9,15.5z"/>
		</g>
		<g>
			<g>
				<path fill="#003473" d="M8.1,11c-0.1,0-0.2,0-0.3,0c-0.7,0-1,0.2-1,0.7c0,0.3,0.2,0.4,0.4,0.4C7.7,12.1,8,11.7,8.1,11z M8.8,13
					c-0.2,0-1,0-1,0v-0.4C7.6,13,7.2,13,6.7,13c-0.6,0-1.1-0.5-1.1-1.1c0-1,0.8-1.6,2-1.6c0.1,0,0.3,0,0.5,0c0-0.1,0-0.2,0-0.3
					c0-0.3-0.2-0.4-0.7-0.4c-0.6,0-1,0.1-1.2,0.2c0-0.1,0.2-1,0.2-1c0.6-0.2,1-0.2,1.4-0.2c1,0,1.5,0.4,1.5,1.2c0,0.2,0,0.5-0.1,0.9
					C9.1,11.3,8.8,12.7,8.8,13z"/>
				<polygon fill="#003473" points="5.2,13 4.1,13 4.8,9 3.3,13 2.5,13 2.4,9 1.8,13 0.7,13 1.6,7.9 3.2,7.9 3.3,10.7 4.3,7.9 
					6.1,7.9 				"/>
				<path fill="#003473" d="M26,11c-0.1,0-0.2,0-0.3,0c-0.7,0-1,0.2-1,0.7c0,0.3,0.2,0.4,0.4,0.4C25.6,12.1,26,11.7,26,11z M26.7,13
					c-0.2,0-1,0-1,0v-0.4C25.5,13,25.1,13,24.6,13c-0.6,0-1.1-0.5-1.1-1.1c0-1,0.8-1.6,2-1.6c0.1,0,0.3,0,0.5,0c0-0.1,0-0.2,0-0.3
					c0-0.3-0.2-0.4-0.7-0.4c-0.6,0-1,0.1-1.2,0.2c0-0.1,0.2-1,0.2-1c0.6-0.2,1-0.2,1.4-0.2c1,0,1.5,0.4,1.5,1.2c0,0.2,0,0.5-0.1,0.9
					C27,11.3,26.8,12.7,26.7,13z"/>
				<path fill="#003473" d="M13.9,12.9C13.6,13,13.3,13,13.1,13c-0.6,0-0.9-0.3-0.9-1c0-0.2,0.1-0.7,0.2-1.1
					c0.1-0.4,0.5-2.9,0.5-2.9h1.2L14,8.7h0.7l-0.2,1h-0.7c-0.1,0.8-0.3,1.7-0.3,1.9c0,0.2,0.1,0.3,0.4,0.3c0.1,0,0.2,0,0.3,0
					L13.9,12.9z"/>
				<path fill="#003473" d="M17.4,12.9C17,13,16.6,13,16.2,13c-1.3,0-1.9-0.7-1.9-1.8c0-1.4,0.9-2.5,1.9-2.5c1,0,1.6,0.6,1.6,1.5
					c0,0.3,0,0.6-0.1,1h-2.2c-0.1,0.6,0.3,0.9,1,0.9c0.4,0,0.8-0.1,1.2-0.3L17.4,12.9z M16.7,10.4c0-0.1,0.1-0.8-0.5-0.8
					c-0.4,0-0.6,0.3-0.7,0.8H16.7z"/>
				<path fill="#003473" d="M9.5,10.1c0,0.5,0.3,0.9,0.9,1.1c0.5,0.2,0.5,0.3,0.5,0.5c0,0.3-0.2,0.4-0.7,0.4c-0.3,0-0.7-0.1-1-0.2
					l-0.2,1C9.3,13,9.5,13,10.2,13c1.2,0,1.8-0.5,1.8-1.3c0-0.6-0.2-0.9-0.8-1.1c-0.5-0.2-0.5-0.3-0.5-0.5s0.2-0.4,0.6-0.4
					c0.2,0,0.5,0,0.8,0.1l0.2-1c-0.3,0-0.8-0.1-1-0.1C10,8.8,9.5,9.3,9.5,10.1z"/>
				<path fill="#003473" d="M22.9,8.9c0.3,0,0.6,0.1,1,0.3L24.1,8c-0.2-0.1-0.8-0.5-1.3-0.5c-0.8,0-1.4,0.4-1.8,1
					c-0.7-0.2-1,0.2-1.3,0.7l-0.3,0.1c0-0.1,0-0.3,0-0.4h-1c-0.1,1.2-0.4,2.6-0.6,3.8L17.8,13H19c0.2-1.1,0.3-1.9,0.4-2.5l0.4-0.2
					c0.1-0.2,0.3-0.3,0.7-0.3c-0.1,0.3-0.1,0.6-0.1,0.9c0,1.3,0.8,2.2,1.9,2.2c0.3,0,0.6,0,1-0.2l0.2-1.1c-0.4,0.2-0.7,0.3-1,0.3
					c-0.7,0-1.1-0.5-1.1-1.2C21.5,9.6,22.1,8.9,22.9,8.9z"/>
				<path fill="#003473" d="M32.6,7.9l-0.3,1.4C32,9,31.6,8.7,31.2,8.7c-0.6,0-1.1,0.4-1.5,1c-0.5-0.1-1-0.3-1-0.3l0,0
					c0-0.4,0.1-0.6,0.1-0.7h-1.1c-0.1,1.2-0.4,2.6-0.6,3.8l-0.1,0.3h1.2c0.2-1,0.3-1.7,0.4-2.4c0.4-0.4,0.6-0.7,1-0.6
					c-0.2,0.4-0.3,0.9-0.3,1.3c0,1,0.6,1.7,1.4,1.7c0.4,0,0.8-0.1,1.1-0.5l-0.1,0.4h1.1l0.9-5L32.6,7.9L32.6,7.9z M31.1,12
					c-0.4,0-0.6-0.3-0.6-0.9c0-0.9,0.4-1.4,0.9-1.4c0.4,0,0.6,0.3,0.6,0.8C32,11.4,31.6,12,31.1,12z"/>
			</g>
			<g>
				<polygon fill="#FFFFFF" points="5.5,12.7 4.4,12.7 5.1,8.8 3.6,12.7 2.8,12.7 2.7,8.8 2,12.7 1,12.7 1.8,7.5 3.5,7.5 3.6,10.7 
					4.7,7.5 6.4,7.5 				"/>
				<path fill="#FFFFFF" d="M8.4,10.8c-0.1,0-0.2,0-0.3,0c-0.7,0-1,0.2-1,0.7c0,0.3,0.2,0.4,0.4,0.4C8,11.8,8.4,11.4,8.4,10.8z
					 M9.1,12.7c-0.2,0-1,0-1,0v-0.4c-0.3,0.4-0.7,0.5-1.2,0.5c-0.6,0-1.1-0.5-1.1-1.1c0-1,0.8-1.6,2-1.6c0.1,0,0.3,0,0.5,0
					c0-0.1,0-0.2,0-0.3c0.1-0.2-0.1-0.4-0.7-0.4c-0.5,0-1,0.2-1.2,0.2c0-0.1,0.2-1,0.2-1c0.6-0.2,1-0.2,1.4-0.2c1,0,1.5,0.4,1.5,1.2
					c0,0.2,0,0.5-0.1,0.9C9.4,11,9.2,12.3,9.1,12.7z"/>
				<path fill="#FFFFFF" d="M24.4,7.7l-0.2,1.1c-0.4-0.2-0.7-0.3-1-0.3c-0.9,0-1.5,0.8-1.5,1.9c0,0.8,0.4,1.2,1.1,1.2
					c0.3,0,0.6-0.1,1-0.3l-0.2,1.1c-0.4,0.1-0.7,0.2-1,0.2c-1.3,0-1.9-0.9-1.9-2.2c0-1.8,1.1-3,2.5-3C23.7,7.4,24.3,7.6,24.4,7.7z"
					/>
				<path fill="#FFFFFF" d="M26.2,10.8c-0.1,0-0.2,0-0.3,0c-0.7,0-1,0.2-1,0.7c0,0.3,0.2,0.4,0.4,0.4C25.9,11.8,26.2,11.4,26.2,10.8
					z M27.1,12.7c-0.2,0-1,0-1,0v-0.4c-0.3,0.4-0.7,0.5-1.2,0.5c-0.6,0-1.1-0.5-1.1-1.1c0-1,0.8-1.6,2-1.6c0.1,0,0.3,0,0.5,0
					c0-0.1,0-0.2,0-0.3c0-0.3-0.2-0.4-0.7-0.4c-0.6,0-1,0.1-1.2,0.2c0-0.1,0.2-1,0.2-1c0.6-0.2,1-0.2,1.4-0.2c1,0,1.5,0.4,1.5,1.2
					c0,0.2,0,0.5-0.1,0.9C27.3,11,27.1,12.3,27.1,12.7z"/>
				<path fill="#FFFFFF" d="M14.2,12.6c-0.3,0.1-0.6,0.1-0.8,0.1c-0.6,0-0.9-0.3-0.9-1c0-0.2,0.1-0.7,0.2-1.1
					c0.1-0.4,0.5-2.9,0.5-2.9h1.2l-0.1,0.7h0.6l-0.3,1.1H14c-0.1,0.8-0.3,1.7-0.3,1.9c0,0.2,0.1,0.3,0.4,0.3c0.1,0,0.2,0,0.3,0
					L14.2,12.6z"/>
				<path fill="#FFFFFF" d="M17.7,12.6c-0.4,0.1-0.8,0.2-1.2,0.2c-1.3,0-1.9-0.7-1.9-1.8c0-1.4,0.9-2.5,1.9-2.5c1,0,1.6,0.6,1.6,1.5
					c0,0.3,0,0.6-0.1,1h-2.2c-0.1,0.6,0.3,0.9,1,0.9c0.4,0,0.8-0.1,1.2-0.3L17.7,12.6z M17,10.1c0-0.1,0.1-0.8-0.5-0.8
					c-0.4,0-0.6,0.3-0.7,0.8H17z"/>
				<path fill="#FFFFFF" d="M9.8,9.8c0,0.5,0.3,0.9,0.9,1.1c0.5,0.2,0.5,0.3,0.5,0.5c0,0.3-0.2,0.4-0.7,0.4c-0.3,0-0.7-0.1-1-0.2
					l-0.2,1c0.3,0.1,0.5,0.1,1.2,0.1c1.2,0,1.8-0.5,1.8-1.3c0-0.6-0.2-0.9-0.8-1.1C11,10,11,9.9,11,9.7c0-0.2,0.2-0.4,0.6-0.4
					c0.2,0,0.5,0,0.8,0.1l0.2-1c-0.3,0-0.8-0.1-1-0.1C10.3,8.4,9.8,9,9.8,9.8z"/>
				<path fill="#FFFFFF" d="M33.2,12.7h-1.1l0.1-0.4c-0.3,0.3-0.6,0.5-1.1,0.5c-0.8,0-1.4-0.7-1.4-1.7c0-1.3,0.9-2.6,1.8-2.6
					c0.5,0,0.8,0.2,1.1,0.6L33,7.6h1.2L33.2,12.7z M31.4,11.7c0.5,0,0.9-0.6,0.9-1.4c0-0.6-0.2-0.8-0.6-0.8c-0.5,0-0.9,0.6-0.9,1.4
					C30.8,11.4,31,11.7,31.4,11.7z"/>
				<path fill="#FFFFFF" d="M28.1,8.5c-0.1,1.2-0.4,2.6-0.6,3.8l-0.1,0.3h1.2c0.4-2.5,0.5-3,1.2-3c0.1-0.5,0.3-1,0.4-1.2
					c-0.5-0.1-0.8,0.2-1.1,0.7c0-0.2,0.1-0.4,0.1-0.7L28.1,8.5L28.1,8.5z"/>
				<path fill="#FFFFFF" d="M18.8,8.5c-0.1,1.2-0.4,2.6-0.6,3.8l-0.1,0.3h1.2c0.4-2.5,0.5-3,1.2-3c0.1-0.5,0.3-1,0.4-1.2
					C20.3,8.3,20,8.6,19.7,9c0-0.2,0.1-0.4,0.1-0.7L18.8,8.5L18.8,8.5z"/>
				<g>
					<path fill="#FFFFFF" d="M33.6,12.3c0-0.2,0.2-0.3,0.3-0.3c0.2,0,0.3,0.2,0.3,0.3c0,0.2-0.2,0.3-0.3,0.3
						C33.7,12.7,33.6,12.5,33.6,12.3z M33.9,12.6c0.1,0,0.3-0.1,0.3-0.3c0-0.1-0.1-0.3-0.3-0.3c-0.1,0-0.3,0.1-0.3,0.3
						S33.8,12.6,33.9,12.6z M33.9,12.5L33.9,12.5l-0.1-0.3h0.1H34c0,0,0,0,0,0.1C34,12.3,34,12.4,33.9,12.5L33.9,12.5L33.9,12.5
						L33.9,12.5L33.9,12.5L33.9,12.5z M33.9,12.3L33.9,12.3L33.9,12.3C34,12.3,34,12.3,33.9,12.3C34,12.3,34,12.2,33.9,12.3
						C33.9,12.2,33.9,12.2,33.9,12.3L33.9,12.3L33.9,12.3z"/>
				</g>
			</g>
		</g>
	</g>
</g>
</svg>
