<?xml version="1.0" encoding="utf-8"?>
<!-- Generator: Adobe Illustrator 18.0.0, SVG Export Plug-In . SVG Version: 6.00 Build 0)  -->
<!DOCTYPE svg PUBLIC "-//W3C//DTD SVG 1.0//EN" "http://www.w3.org/TR/2001/REC-SVG-20010904/DTD/svg10.dtd">
<svg version="1.0" id="Camada_1" xmlns="http://www.w3.org/2000/svg" xmlns:xlink="http://www.w3.org/1999/xlink" x="0px" y="0px"
	 width="79px" height="24px" viewBox="0 0 79 24" enable-background="new 0 0 79 24" xml:space="preserve">
<g>
	<text transform="matrix(1.0981 0 0 1 29.8029 22.8632)"><tspan x="0" y="0" font-family="'HelveticaNeueLTStd-HvCn'" font-size="4.9444">MANDOU</tspan><tspan x="19.6" y="0" font-family="'HelveticaNeueLTStd-HvCn'" font-size="4.9444">,</tspan><tspan x="20.9" y="0" font-family="'HelveticaNeueLTStd-HvCn'" font-size="4.9444"> CHEGOU</tspan><tspan x="40.3" y="0" font-family="'HelveticaNeueLTStd-HvCn'" font-size="4.9444">.</tspan></text>
	<polygon fill="#082162" points="0,17.2 74.8,17.2 79,0 4.8,0 	"/>
	<g>
		<g>
			<g>
				<path fill="#FFDD00" d="M4.2,10.9l4.2-0.2c0,0.6,0,1.1,0.2,1.5c0.3,0.5,0.9,0.8,1.7,0.8c0.6,0,1.1-0.1,1.5-0.4
					c0.4-0.3,0.6-0.6,0.7-1c0.1-0.3,0-0.7-0.3-0.9c-0.3-0.3-0.9-0.5-2.1-0.8c-1.8-0.4-3.1-1-3.7-1.6C5.9,7.5,5.6,6.7,5.9,5.6
					c0.1-0.7,0.5-1.3,1-1.9C7.5,3,8.2,2.6,9.1,2.2c0.9-0.3,2.1-0.5,3.6-0.5c1.8,0,3.1,0.3,3.9,1c0.8,0.6,1.2,1.6,1,3l-4.1,0.2
					c0-0.6-0.1-1-0.4-1.3c-0.3-0.3-0.7-0.4-1.4-0.4c-0.5,0-0.9,0.1-1.2,0.3C10.2,4.7,10,4.9,10,5.2c0,0.2,0,0.4,0.2,0.6
					c0.2,0.2,0.6,0.3,1.4,0.5c1.8,0.4,3.1,0.8,3.8,1.2c0.7,0.4,1.2,0.9,1.5,1.5c0.2,0.6,0.3,1.3,0.1,2c-0.2,0.9-0.6,1.6-1.3,2.4
					c-0.7,0.7-1.5,1.3-2.4,1.6c-1,0.4-2.1,0.6-3.5,0.6c-2.4,0-4-0.4-4.7-1.3C4.3,13.3,4.1,12.2,4.2,10.9z"/>
				<path fill="#FFDD00" d="M20.1,1.9l11.6,0l-0.6,2.9l-7.3,0l-0.5,2.1l6.8,0l-0.6,2.7l-6.8,0l-0.6,2.6l7.5,0l-0.6,3l-11.9,0
					L20.1,1.9z"/>
				<path fill="#FFDD00" d="M33.3,1.9l6.5,0c1.3,0,2.3,0.2,3,0.5c0.7,0.3,1.3,0.8,1.6,1.4C44.8,4.5,45,5.2,45.1,6
					c0.1,0.8,0,1.7-0.2,2.6c-0.3,1.4-0.7,2.5-1.2,3.3c-0.5,0.8-1.1,1.4-1.8,2c-0.7,0.5-1.4,0.9-2.2,1.1c-1,0.2-1.9,0.4-2.7,0.4
					l-6.5,0L33.3,1.9z M37,5l-1.6,7.3l1.1,0c0.9,0,1.6-0.1,2-0.3c0.4-0.2,0.8-0.5,1.1-1c0.3-0.5,0.6-1.3,0.8-2.3
					c0.3-1.4,0.3-2.4-0.1-2.9C40,5.2,39.2,5,38.1,5L37,5z"/>
				<path fill="#FFDD00" d="M47.6,2l11.6,0l-0.6,2.9l-7.3,0l-0.5,2.1l6.8,0L57,9.7l-6.8,0l-0.6,2.6l7.5,0l-0.6,3l-11.9,0L47.6,2z"/>
				<path fill="#FFDD00" d="M60.4,2l4.8,0l1.6,4.1L70.1,2l4.7,0l-5.8,6.5l3.3,6.9l-4.9,0l-1.9-4.3L62,15.4l-4.9,0l6.3-7L60.4,2z"/>
			</g>
		</g>
	</g>
</g>
</svg>
