<?xml version="1.0" encoding="utf-8"?>
<!-- Generator: Adobe Illustrator 18.0.0, SVG Export Plug-In . SVG Version: 6.00 Build 0)  -->
<!DOCTYPE svg PUBLIC "-//W3C//DTD SVG 1.0//EN" "http://www.w3.org/TR/2001/REC-SVG-20010904/DTD/svg10.dtd">
<svg version="1.0" id="Camada_1" xmlns="http://www.w3.org/2000/svg" xmlns:xlink="http://www.w3.org/1999/xlink" x="0px" y="0px"
	 width="34px" height="23px" viewBox="0 0 34 23" enable-background="new 0 0 34 23" xml:space="preserve">
<path fill="#FFFFFF" d="M32,23c1,0,2-0.8,2-2V2c0-1-0.8-2-2-2H2c-1,0-2,0.8-2,2v19c0,1,0.8,2,2,2L32,23L32,23z M3.7,21l7.8-7.7
	l-0.1,0l3.4,2.9c0.6,0.5,1.5,0.8,2.3,0.8c0.8,0,1.7-0.3,2.3-0.8l3.4-2.9h0l7.8,7.7H3.7z M31.9,19.5l-7.7-7.6l7.7-6.7V19.5z M2.2,2
	h29.7v0.4l-14,12.2c-0.5,0.4-1.4,0.4-1.8,0L2.2,2.5V2z M2.2,5.2l7.7,6.7l-7.7,7.6V5.2z"/>
</svg>
