<?xml version="1.0" encoding="utf-8"?>
<!-- Generator: Adobe Illustrator 20.0.0, SVG Export Plug-In . SVG Version: 6.00 Build 0)  -->
<svg version="1.1" id="Camada_1" xmlns="http://www.w3.org/2000/svg" xmlns:xlink="http://www.w3.org/1999/xlink" x="0px" y="0px"
	 viewBox="0 0 31 31" style="enable-background:new 0 0 31 31;" xml:space="preserve">
<style type="text/css">
	.st0{fill:#FF4A4A;}
	.st1{fill:#FFFFFF;}
</style>
<circle class="st0" cx="15.4" cy="15.4" r="14.6"/>
<g>
	<path class="st1" d="M12,11.7l-0.7-1.2L16,7h1.3v11.5c0,0.2,0,0.4,0,0.6c0,0.2,0,0.4,0,0.5c0,0.2,0,0.3,0,0.5c0,0.1,0,0.2,0,0.3
		l1.6-0.1v1.6h-6v-1.4c0.2,0,0.4,0,0.6-0.1c0.2,0,0.3-0.1,0.5-0.2s0.2-0.3,0.3-0.5s0.1-0.6,0.1-1v-8.3L12,11.7z"/>
</g>
</svg>
