<?xml version="1.0" encoding="utf-8"?>
<!-- Generator: Adobe Illustrator 20.0.0, SVG Export Plug-In . SVG Version: 6.00 Build 0)  -->
<svg version="1.1" id="Camada_1" xmlns="http://www.w3.org/2000/svg" xmlns:xlink="http://www.w3.org/1999/xlink" x="0px" y="0px"
	 viewBox="0 0 31 31" style="enable-background:new 0 0 31 31;" xml:space="preserve">
<style type="text/css">
	.st0{fill:#FF4A4A;}
	.st1{fill:#FFFFFF;}
</style>
<circle class="st0" cx="15.4" cy="15.4" r="14.6"/>
<g>
	<path class="st1" d="M10.9,19.1c0-0.2,0-0.4,0.1-0.6c0.1-0.2,0.2-0.4,0.3-0.5s0.3-0.3,0.5-0.3s0.4-0.1,0.6-0.1c0.2,0,0.4,0,0.6,0.1
		s0.3,0.2,0.4,0.3c0.1,0.1,0.2,0.3,0.2,0.4c0,0.2,0.1,0.3,0.1,0.4c0,0.1,0,0.3-0.1,0.5c-0.1,0.2-0.1,0.3-0.2,0.5
		c0.1,0.1,0.2,0.2,0.3,0.3s0.3,0.2,0.4,0.3c0.2,0.1,0.3,0.1,0.5,0.2c0.2,0,0.4,0.1,0.6,0.1c0.4,0,0.8-0.1,1.1-0.2
		c0.3-0.1,0.6-0.3,0.8-0.6c0.2-0.2,0.4-0.5,0.5-0.9s0.2-0.7,0.2-1.1c0-0.4,0-0.7-0.1-1.1c-0.1-0.4-0.3-0.7-0.5-1
		c-0.2-0.3-0.6-0.5-0.9-0.7c-0.4-0.2-0.9-0.3-1.5-0.3c0,0-0.1,0-0.2,0c-0.1,0-0.2,0-0.3,0s-0.2,0-0.3,0c-0.1,0-0.2,0-0.2,0v-1.5
		c0.1,0,0.1,0,0.2,0s0.1,0,0.2,0c1,0,1.8-0.2,2.3-0.7c0.5-0.5,0.8-1.2,0.8-2c0-0.3,0-0.7-0.1-0.9c-0.1-0.3-0.2-0.5-0.3-0.7
		c-0.2-0.2-0.4-0.4-0.6-0.5c-0.2-0.1-0.5-0.2-0.9-0.2c-0.2,0-0.4,0-0.5,0.1c-0.2,0.1-0.3,0.1-0.5,0.2c-0.1,0.1-0.3,0.2-0.4,0.3
		s-0.2,0.2-0.3,0.3c0.1,0.2,0.2,0.3,0.3,0.5c0,0.2,0.1,0.4,0.1,0.5c0,0.1,0,0.3-0.1,0.4c-0.1,0.2-0.1,0.3-0.2,0.4
		c-0.1,0.1-0.3,0.2-0.4,0.3c-0.2,0.1-0.4,0.1-0.7,0.1c-0.2,0-0.4-0.1-0.6-0.1s-0.3-0.2-0.4-0.3c-0.1-0.1-0.2-0.3-0.3-0.5
		c-0.1-0.2-0.1-0.4-0.1-0.6c0-0.3,0.1-0.6,0.3-1c0.2-0.4,0.5-0.7,0.8-1c0.4-0.3,0.8-0.6,1.4-0.8C14.2,7.1,14.8,7,15.6,7
		c0.6,0,1.2,0.1,1.8,0.2c0.6,0.1,1.1,0.3,1.5,0.6c0.4,0.3,0.7,0.7,1,1.1c0.2,0.5,0.4,1,0.4,1.7c0,0.3-0.1,0.6-0.2,0.9
		c-0.1,0.3-0.3,0.6-0.5,1c-0.2,0.3-0.6,0.6-1,0.8c-0.4,0.3-0.9,0.4-1.5,0.6v0c0.7,0.1,1.2,0.3,1.7,0.5s0.9,0.5,1.2,0.9
		c0.3,0.3,0.6,0.7,0.7,1.1s0.2,0.8,0.2,1.3c0,0.7-0.1,1.3-0.4,1.9s-0.7,1-1.1,1.4c-0.5,0.4-1.1,0.7-1.8,0.8s-1.4,0.3-2.2,0.3
		c-0.8,0-1.5-0.1-2-0.3c-0.6-0.2-1-0.4-1.4-0.7s-0.6-0.6-0.8-1C11,19.9,10.9,19.5,10.9,19.1z"/>
</g>
</svg>
