<?xml version="1.0" encoding="utf-8"?>
<!-- Generator: Adobe Illustrator 20.0.0, SVG Export Plug-In . SVG Version: 6.00 Build 0)  -->
<svg version="1.1" id="Camada_1" xmlns="http://www.w3.org/2000/svg" xmlns:xlink="http://www.w3.org/1999/xlink" x="0px" y="0px"
	 viewBox="0 0 31 31" style="enable-background:new 0 0 31 31;" xml:space="preserve">
<style type="text/css">
	.st0{fill:#FF4A4A;}
	.st1{fill:#FFFFFF;}
</style>
<circle class="st0" cx="15.4" cy="15.4" r="14.6"/>
<g>
	<path class="st1" d="M15,8.5c-0.4,0-0.7,0.1-1,0.3c-0.3,0.2-0.5,0.4-0.7,0.6c0.1,0.2,0.3,0.3,0.3,0.5c0.1,0.2,0.1,0.4,0.1,0.5
		c0,0.1,0,0.3-0.1,0.4s-0.1,0.3-0.2,0.4c-0.1,0.1-0.3,0.2-0.4,0.3c-0.2,0.1-0.4,0.1-0.7,0.1c-0.2,0-0.4-0.1-0.6-0.1
		s-0.3-0.2-0.4-0.3c-0.1-0.1-0.2-0.3-0.3-0.5C11,10.6,11,10.4,11,10.2c0-0.2,0-0.4,0.1-0.7c0.1-0.2,0.2-0.5,0.4-0.7
		c0.2-0.2,0.4-0.5,0.6-0.7c0.3-0.2,0.6-0.4,0.9-0.6c0.3-0.2,0.7-0.3,1.1-0.4C14.6,7,15,7,15.5,7c0.6,0,1.1,0.1,1.7,0.2
		c0.6,0.1,1.1,0.4,1.5,0.7c0.4,0.3,0.8,0.7,1.1,1.2c0.3,0.5,0.4,1.1,0.4,1.8c0,0.4-0.1,0.7-0.2,1.1c-0.1,0.4-0.4,0.8-0.7,1.3
		s-0.8,1-1.4,1.6c-0.6,0.6-1.4,1.3-2.3,2c-0.4,0.3-0.7,0.6-1,0.9s-0.5,0.6-0.7,0.8c-0.2,0.2-0.3,0.5-0.4,0.7
		c-0.1,0.2-0.2,0.4-0.2,0.5l4.1,0.1h0.2c0.2,0,0.4,0,0.6-0.1s0.3-0.1,0.4-0.2s0.2-0.2,0.3-0.4c0.1-0.2,0.1-0.4,0.1-0.7h1.3L20,21.8
		H11c0-0.7,0.1-1.4,0.3-1.9c0.2-0.6,0.4-1.1,0.7-1.5c0.3-0.5,0.6-0.9,1-1.3c0.4-0.4,0.8-0.8,1.2-1.1c0.5-0.5,0.9-0.9,1.3-1.3
		c0.4-0.4,0.6-0.8,0.9-1.2s0.4-0.8,0.5-1.1c0.1-0.4,0.2-0.7,0.2-1.1c0-0.3,0-0.7-0.1-1s-0.2-0.6-0.3-0.9c-0.2-0.3-0.4-0.5-0.6-0.6
		C15.7,8.5,15.4,8.5,15,8.5z"/>
</g>
</svg>
