<?xml version="1.0" encoding="utf-8"?>
<!-- Generator: Adobe Illustrator 18.0.0, SVG Export Plug-In . SVG Version: 6.00 Build 0)  -->
<!DOCTYPE svg PUBLIC "-//W3C//DTD SVG 1.0//EN" "http://www.w3.org/TR/2001/REC-SVG-20010904/DTD/svg10.dtd">
<svg version="1.0" id="Camada_1" xmlns="http://www.w3.org/2000/svg" xmlns:xlink="http://www.w3.org/1999/xlink" x="0px" y="0px"
	 width="58px" height="56px" viewBox="0 0 58 56" enable-background="new 0 0 58 56" xml:space="preserve">
<g>
	<g>
		<path fill="#FF5252" d="M42.5,56H15.5C7,56,0,49,0,40.5V15.5C0,7,7,0,15.5,0l27.1,0C51,0,58,7,58,15.5v25.1C58,49,51,56,42.5,56z"
			/>
	</g>
	<g>
		<path fill="#FFFFFF" d="M45.7,14.8c1,1.7,1.7,3.6,2.1,5.7c-1.1,0.2-2.2,0.4-3.3,0.4c-1.8,0-3.7-0.5-5.7-1.4v-0.4
			c0-1.8-2.8-2.7-8.4-2.7c-5.8,0-8.7,0.9-8.7,2.7v0.4c-1.9,1.1-3.8,1.7-5.7,1.7c-1.1,0-2.2-0.2-3.3-0.6c0.3-2,1-3.9,2.1-5.7
			c2.4-0.9,4.8-1.5,7.4-2c2.6-0.4,5.2-0.6,8-0.6c2.9,0,5.6,0.2,8.2,0.6C40.9,13.3,43.3,13.9,45.7,14.8z M21.6,20.5v0.7
			c0,1.5-0.4,2.6-1.3,3.2c-0.9,0.7-2.3,1-4.2,1c-1.4,0-2.3-0.2-2.8-0.7c-0.5-0.4-0.7-1.3-0.7-2.6v-0.8C13.9,21.8,15,22,16,22
			C18,22,19.8,21.5,21.6,20.5z M27.4,21.5h5.5v-2.5h4.2v3.5l4.9,7.8c0.7,1.1,1.2,2.1,1.4,2.8c0.2,0.7,0.3,1.7,0.3,2.9v4.3H16.5v-4.3
			c0-1.8,0.6-3.7,1.9-5.7l4.8-7.7v-3.5h4.2V21.5z M25,24.5v1.6h2.3v-1.6H25z M25,27.3v1.6h2.3v-1.6H25z M25,30v1.6h2.3V30H25z
			 M28.9,24.5v1.6h2.3v-1.6H28.9z M28.9,27.3v1.6h2.3v-1.6H28.9z M28.9,30v1.6h2.3V30H28.9z M32.8,24.5v1.6h2.3v-1.6H32.8z
			 M32.8,27.3v1.6h2.3v-1.6H32.8z M32.8,30v1.6h2.3V30H32.8z M47.7,21.3v0.9c0,1.1-0.2,1.9-0.7,2.4c-0.5,0.4-1.4,0.6-2.7,0.6
			c-1.9,0-3.3-0.3-4.2-1c-0.9-0.7-1.4-1.7-1.4-3v-0.8c1.8,0.9,3.7,1.4,5.7,1.4C45.6,21.8,46.7,21.6,47.7,21.3z"/>
	</g>
</g>
</svg>
