<?xml version="1.0" encoding="utf-8"?>
<!-- Generator: Adobe Illustrator 18.0.0, SVG Export Plug-In . SVG Version: 6.00 Build 0)  -->
<!DOCTYPE svg PUBLIC "-//W3C//DTD SVG 1.0//EN" "http://www.w3.org/TR/2001/REC-SVG-20010904/DTD/svg10.dtd">
<svg version="1.0" id="Camada_1" xmlns="http://www.w3.org/2000/svg" xmlns:xlink="http://www.w3.org/1999/xlink" x="0px" y="0px"
	 width="58px" height="56px" viewBox="0 0 58 56" enable-background="new 0 0 58 56" xml:space="preserve">
<g>
	<path fill="#69ACDF" d="M42.5,56H15.5C7,56,0,49,0,40.5V15.5C0,7,7,0,15.5,0l27.1,0C51,0,58,7,58,15.5v25.1C58,49,51,56,42.5,56z"
		/>
	<path fill="#FFFFFF" d="M12.6,38.3c3,1.9,6.5,3,10.2,3c10.5,0,19.1-8.6,19.1-19.2c0-0.3,0-0.5,0-0.8c0.4-0.3,2.7-2.2,3.3-3.4
		c0,0-1.9,0.8-3.8,1c0,0,0,0,0,0c0,0,0,0,0,0c0.2-0.1,2.6-1.8,2.9-3.7c0,0-1.4,0.7-3.3,1.4c-0.3,0.1-0.6,0.2-1,0.3
		c-1.2-1.3-3-2.1-4.9-2.1c-3.7,0-6.7,3-6.7,6.7c0,0.5,0.1,1,0.2,1.5c-0.5,0-8.4-0.5-13.8-7c0,0-3.2,4.4,1.9,8.9c0,0-1.6-0.1-2.9-0.9
		c0,0-0.5,5.3,5.3,6.7c0,0-1.1,0.4-3,0.1c0,0,1,4.3,6.2,4.7C22.4,35.5,18.3,39.2,12.6,38.3L12.6,38.3z M12.6,38.3"/>
</g>
</svg>
