<?xml version="1.0" encoding="utf-8"?>
<!-- Generator: Adobe Illustrator 18.0.0, SVG Export Plug-In . SVG Version: 6.00 Build 0)  -->
<!DOCTYPE svg PUBLIC "-//W3C//DTD SVG 1.0//EN" "http://www.w3.org/TR/2001/REC-SVG-20010904/DTD/svg10.dtd">
<svg version="1.0" id="Camada_1" xmlns="http://www.w3.org/2000/svg" xmlns:xlink="http://www.w3.org/1999/xlink" x="0px" y="0px"
	 width="44px" height="15px" viewBox="0 0 44 15" enable-background="new 0 0 44 15" xml:space="preserve">
<g>
	<g>
		<polygon fill="#283A8C" points="19.1,14.8 15.5,14.8 17.7,0.2 21.3,0.2 		"/>
		<path fill="#283A8C" d="M12.5,0.2L9,10.2L8.6,8l0,0L7.4,1.6c0,0-0.1-1.3-1.7-1.3H0.1L0,0.5c0,0,1.8,0.4,3.8,1.6l3.1,12.5h3.8
			l5.8-14.5L12.5,0.2z"/>
		<path fill="#283A8C" d="M40.8,14.8H44L41.2,0.2h-2.9c-1.4,0-1.7,1.1-1.7,1.1l-5.3,13.4H35l0.7-2.1h4.6L40.8,14.8z M36.8,9.6
			l1.9-5.5l1,5.5H36.8z"/>
		<path fill="#283A8C" d="M31.5,3.8l0.5-3.1c0,0-1.6-0.6-3.2-0.6c-1.8,0-6,0.9-6,4.8c0,3.7,4.9,3.7,4.9,5.8s-4.5,1.6-6,0.3l-0.5,3.2
			c0,0,1.6,0.9,4.1,0.9c2.4,0,6.2-1.3,6.2-4.9c0-3.8-5-4.1-5-5.8C26.5,2.7,30,2.9,31.5,3.8z"/>
	</g>
	<path fill="#F8A533" d="M8.6,8L7.4,1.6c0,0-0.1-1.3-1.7-1.3H0.1L0,0.5c0,0,2.7,0.6,5.3,2.8C7.9,5.5,8.6,8,8.6,8z"/>
</g>
</svg>
