<?xml version="1.0" encoding="utf-8"?>
<!-- Generator: Adobe Illustrator 18.0.0, SVG Export Plug-In . SVG Version: 6.00 Build 0)  -->
<!DOCTYPE svg PUBLIC "-//W3C//DTD SVG 1.0//EN" "http://www.w3.org/TR/2001/REC-SVG-20010904/DTD/svg10.dtd">
<svg version="1.0" id="Camada_1" xmlns="http://www.w3.org/2000/svg" xmlns:xlink="http://www.w3.org/1999/xlink" x="0px" y="0px"
	 width="20px" height="20px" viewBox="0 0 20 20" enable-background="new 0 0 20 20" xml:space="preserve">
<g>
	<path fill-rule="evenodd" clip-rule="evenodd" fill="#656565" d="M20,9.7c0,5.4-4.4,9.7-9.8,9.7c-1.7,0-3.3-0.4-4.7-1.2L0,20
		l1.8-5.2c-0.9-1.5-1.4-3.2-1.4-5C0.4,4.4,4.8,0,10.2,0C15.6,0,20,4.4,20,9.7L20,9.7z M10.2,1.6c-4.6,0-8.3,3.7-8.3,8.2
		c0,1.8,0.6,3.5,1.6,4.8l-1,3l3.2-1c1.3,0.9,2.9,1.4,4.5,1.4c4.6,0,8.3-3.7,8.3-8.2C18.4,5.2,14.7,1.6,10.2,1.6L10.2,1.6z M15.1,12
		c-0.1-0.1-0.2-0.2-0.5-0.3c-0.2-0.1-1.4-0.7-1.6-0.8c-0.2-0.1-0.4-0.1-0.5,0.1c-0.2,0.2-0.6,0.8-0.8,0.9c-0.1,0.2-0.3,0.2-0.5,0.1
		c-0.2-0.1-1-0.4-1.9-1.2c-0.7-0.6-1.2-1.4-1.3-1.7C7.8,9,7.9,8.8,8,8.7c0.1-0.1,0.2-0.3,0.4-0.4c0.1-0.1,0.2-0.2,0.2-0.4
		c0.1-0.2,0-0.3,0-0.4C8.6,7.4,8.1,6.2,7.9,5.7C7.7,5.2,7.5,5.3,7.3,5.3c-0.1,0-0.3,0-0.5,0c-0.2,0-0.4,0.1-0.6,0.3
		C6,5.8,5.4,6.4,5.4,7.6c0,1.2,0.9,2.3,1,2.5c0.1,0.2,1.7,2.6,4.1,3.6c2.4,1,2.4,0.6,2.9,0.6c0.4,0,1.4-0.6,1.6-1.1
		C15.2,12.6,15.2,12.1,15.1,12L15.1,12z M15.1,12"/>
</g>
</svg>
