<?xml version="1.0" encoding="UTF-8"?>
<!DOCTYPE svg PUBLIC "-//W3C//DTD SVG 1.1//EN" "http://www.w3.org/Graphics/SVG/1.1/DTD/svg11.dtd">
<!-- Creator: CorelDRAW 2017 -->
<svg xmlns="http://www.w3.org/2000/svg" xml:space="preserve" width="4.5mm" height="4.5mm" version="1.1" style="shape-rendering:geometricPrecision; text-rendering:geometricPrecision; image-rendering:optimizeQuality; fill-rule:evenodd; clip-rule:evenodd"
viewBox="0 0 450 450"
 xmlns:xlink="http://www.w3.org/1999/xlink"
 enable-background="new 0 0 20 20">
 <defs>
  <style type="text/css">
   <![CDATA[
    .fil0 {fill:#FF4A4A}
   ]]>
  </style>
 </defs>
 <g id="Camada_x0020_1">
  <metadata id="CorelCorpID_0Corel-Layer"/>
  <g id="_877942512">
   <path class="fil0" d="M450 218c0,122 -99,218 -221,218 -38,0 -74,-9 -106,-27l-124 41 41 -117c-20,-34 -31,-72 -31,-113 0,-122 99,-221 220,-221 122,0 221,99 221,218l0 0zm-221 -182c-104,0 -187,83 -187,185 0,41 14,79 36,108l-23 68 72 -23c29,20 65,32 101,32 104,0 187,-83 187,-185 -2,-104 -86,-185 -187,-185l0 0zm110 234c-2,-2 -5,-5 -11,-7 -5,-2 -32,-16 -36,-18 -5,-2 -9,-2 -11,2 -4,5 -14,18 -18,20 -2,5 -7,5 -11,2 -5,-2 -23,-9 -43,-27 -16,-14 -27,-32 -29,-38 -5,-2 -2,-7 0,-9 2,-2 5,-7 9,-9 2,-2 5,-5 5,-9 2,-5 0,-7 0,-9 0,-2 -11,-29 -16,-41 -5,-11 -9,-9 -14,-9 -2,0 -7,0 -11,0 -5,0 -9,2 -14,7 -4,4 -18,18 -18,45 0,27 20,52 23,56 2,5 38,59 92,81 54,23 54,14 65,14 9,0 32,-14 36,-25 5,-14 5,-25 2,-27l0 0zm0 0z"/>
  </g>
 </g>
</svg>
